<svg xmlns="http://www.w3.org/2000/svg" viewBox="0 0 28.12 28.12"><defs><style>.cls-1{fill:#64892f;}.cls-2{fill:#b46137;}.cls-3{fill:#e7a74f;}.cls-4{fill:#84b234;}.cls-5{fill:#8cc63e;}</style></defs><g id="Calque_2" data-name="Calque 2"><g id="Calque_1-2" data-name="Calque 1"><path class="cls-1" d="M7,4.33C9.29,6.62,9.66,8.18,8.92,8.92S6.62,9.29,4.33,7A20,20,0,0,1,.61.61,20,20,0,0,1,7,4.33Z"/><path class="cls-1" d="M10.18,5.68c1.37,2.94,1.17,4.53.23,5s-2.28-.43-3.66-3.37A20,20,0,0,1,5.44,0,19.91,19.91,0,0,1,10.18,5.68Z"/><path class="cls-1" d="M13,9c-1.35,3-2.68,3.83-3.63,3.4s-1.15-2,.2-5a19.92,19.92,0,0,1,4.69-5.71A20,20,0,0,1,13,9Z"/><path class="cls-1" d="M11.68,7.48C11.49,10.72,10.57,12,9.53,12S7.72,10.5,7.91,7.26a20,20,0,0,1,2.3-7A19.94,19.94,0,0,1,11.68,7.48Z"/><path class="cls-1" d="M14.63,10.3c-2.09,2.49-3.61,3-4.41,2.31s-.57-2.25,1.51-4.73a20,20,0,0,1,6.05-4.27A20,20,0,0,1,14.63,10.3Z"/><path class="cls-1" d="M5.68,10.18c2.94,1.37,4.53,1.17,5,.23s-.43-2.28-3.37-3.66A20,20,0,0,0,0,5.44,20.08,20.08,0,0,0,5.68,10.18Z"/><path class="cls-1" d="M9,13c3-1.35,3.83-2.68,3.4-3.63s-2-1.15-5,.2a19.92,19.92,0,0,0-5.71,4.69A20,20,0,0,0,9,13Z"/><path class="cls-1" d="M7.48,11.68C10.72,11.49,12,10.57,12,9.53S10.5,7.72,7.26,7.91a20,20,0,0,0-7,2.3A20.17,20.17,0,0,0,7.48,11.68Z"/><path class="cls-1" d="M10.3,14.63c2.49-2.09,3-3.61,2.31-4.41s-2.25-.57-4.73,1.51a20,20,0,0,0-4.27,6.05A20,20,0,0,0,10.3,14.63Z"/><path class="cls-2" d="M25.27,13.69c3.75,3.75,2.7,7.88-.5,11.08s-7.34,4.25-11.08.5S6.78,13.18,10,10,21.52,9.94,25.27,13.69Z"/><path class="cls-3" d="M21.12,21.12c-.46.46-1,2-.57,2.46s2-.11,2.46-.57,1-2,.57-2.46S21.57,20.66,21.12,21.12Z"/><path class="cls-3" d="M23.85,23.85c-.46.45-.86,2.17-.43,2.59s3.45-2.6,3-3S24.3,23.39,23.85,23.85Z"/><path class="cls-3" d="M15.39,15.39c-.46.46-1,2-.57,2.46s2-.11,2.46-.57,1-2,.57-2.46S15.85,14.93,15.39,15.39Z"/><path class="cls-3" d="M18.25,18.25c-.45.46-1,2-.56,2.46s2-.11,2.46-.56,1-2,.56-2.46S18.71,17.8,18.25,18.25Z"/><path class="cls-3" d="M12.64,12.64c-.45.46-1,2-.56,2.46s2-.11,2.46-.56,1-2,.56-2.46S13.1,12.19,12.64,12.64Z"/><path class="cls-3" d="M12.72,23.44c-.65.65-.47,2.72,1.68,3.26.57.15,1.64-3.49,1.22-3.91C14.83,22,13.13,23,12.72,23.44Z"/><path class="cls-3" d="M16.15,26.09c-1.64,1.63,1.1,2.68,2.2,1.58a1.79,1.79,0,0,0,.13-2C18.06,25.23,16.57,25.67,16.15,26.09Z"/><path class="cls-3" d="M16.94,22c-.45.46-1,2.39-.56,2.81s2.45,0,2.91-.47.71-2.26.29-2.68S17.4,21.57,16.94,22Z"/><path class="cls-3" d="M19.85,24.93c-.46.46-.83,2.2-.41,2.62.79.79,2.28.17,2.73-.29s.72-2.31.3-2.73S20.3,24.47,19.85,24.93Z"/><path class="cls-3" d="M14.16,19.25c-.46.45-1.1,2.27-.68,2.69s2.4-.07,2.85-.52.83-2.2.41-2.62S14.62,18.79,14.16,19.25Z"/><path class="cls-3" d="M8.71,13.72a1.94,1.94,0,0,0-.25,2.14,1.94,1.94,0,0,0,2.14-.25c.46-.45,1-2,.57-2.46S9.16,13.26,8.71,13.72Z"/><path class="cls-3" d="M8.74,16.9c-.42.42.35,3.05.77,2.63s1.15-2.19.72-2.61A1,1,0,0,0,8.74,16.9Z"/><path class="cls-3" d="M10.46,20.32c-.54.54-.65,2.91.87,3.12.58.08,1.95-3,1.52-3.42S10.88,19.9,10.46,20.32Z"/><path class="cls-3" d="M11.36,16.45c-.46.45-.86,2.21-.44,2.64s2.24.07,2.7-.39.75-2.21.33-2.64S11.82,16,11.36,16.45Z"/><path class="cls-3" d="M23.44,12.72c.65-.65,2.72-.48,3.26,1.68.15.57-3.49,1.64-3.91,1.22C22,14.83,23,13.13,23.44,12.72Z"/><path class="cls-3" d="M26.09,16.15c1.63-1.64,2.68,1.1,1.58,2.2a1.79,1.79,0,0,1-2,.13C25.23,18.05,25.67,16.57,26.09,16.15Z"/><path class="cls-3" d="M22,16.94c.46-.45,2.39-1,2.81-.56s0,2.45-.47,2.91-2.26.71-2.68.29S21.57,17.4,22,16.94Z"/><path class="cls-3" d="M24.93,19.84c.46-.45,2.2-.82,2.62-.4.79.79.17,2.28-.29,2.73s-2.31.72-2.73.3S24.47,20.3,24.93,19.84Z"/><path class="cls-3" d="M19.25,14.16c.45-.46,2.27-1.1,2.69-.68s-.06,2.4-.52,2.85-2.2.83-2.62.41S18.79,14.62,19.25,14.16Z"/><path class="cls-3" d="M13.72,8.71a1.94,1.94,0,0,1,2.14-.25,1.94,1.94,0,0,1-.25,2.14c-.45.46-2,1-2.46.57S13.26,9.16,13.72,8.71Z"/><path class="cls-3" d="M16.9,8.74c.42-.42,3.05.35,2.63.77s-2.19,1.15-2.61.72A1,1,0,0,1,16.9,8.74Z"/><path class="cls-3" d="M20.32,10.46c.54-.54,2.91-.65,3.12.87.08.58-3,1.95-3.42,1.52S19.9,10.88,20.32,10.46Z"/><path class="cls-3" d="M16.45,11.36c.45-.45,2.21-.86,2.64-.44s.07,2.24-.39,2.7-2.21.75-2.64.33S16,11.82,16.45,11.36Z"/><path class="cls-4" d="M9.33,7.7C11.08,9.45,11.45,10.55,11,11s-1.55.08-3.3-1.67a18.19,18.19,0,0,1-3-4.67A18.19,18.19,0,0,1,9.33,7.7Z"/><path class="cls-4" d="M11.12,13.83c1.55-1.24,1.77-2.25,1.25-2.85s-1.59-.56-3.14.68a10.14,10.14,0,0,0-2.47,3.83A10.81,10.81,0,0,0,11.12,13.83Z"/><path class="cls-4" d="M9.09,10.39c2.18,0,3.22.55,3.39,1.27S11.86,13,9.68,13a15.63,15.63,0,0,1-5.11-1.26A11,11,0,0,1,9.09,10.39Z"/><path class="cls-4" d="M8.86,8.62C11.1,9.23,12,10,12,10.74s-1,1-3.25.39A17.76,17.76,0,0,1,3.86,8.54,13.24,13.24,0,0,1,8.86,8.62Z"/><path class="cls-4" d="M13.83,11.12c-1.24,1.55-2.25,1.77-2.85,1.25s-.56-1.59.68-3.14a10.14,10.14,0,0,1,3.83-2.47A10.81,10.81,0,0,1,13.83,11.12Z"/><path class="cls-4" d="M10.39,9.09c0,2.18.55,3.22,1.27,3.39S13,11.86,13,9.68a15.63,15.63,0,0,0-1.26-5.11A11,11,0,0,0,10.39,9.09Z"/><path class="cls-4" d="M8.62,8.86C9.23,11.1,10,12,10.74,12s1-1,.39-3.25A17.76,17.76,0,0,0,8.54,3.86,13.24,13.24,0,0,0,8.62,8.86Z"/><path class="cls-5" d="M13,9.63a6.27,6.27,0,0,0-1.57-1.79,9.59,9.59,0,0,0-.56,1.7c-1-.43-2.64-1.28-2.64-1.28s.85,1.65,1.28,2.64a9.59,9.59,0,0,0-1.7.56A6.27,6.27,0,0,0,9.63,13a8.8,8.8,0,0,0-1.16,2.56,12.63,12.63,0,0,0,4.59-2.53,12.63,12.63,0,0,0,2.53-4.59A8.8,8.8,0,0,0,13,9.63Z"/></g></g></svg>