<?xml version="1.0" encoding="UTF-8"?><svg xmlns="http://www.w3.org/2000/svg" viewBox="0 0 28.12 28.12"><defs><style>.d{fill:#91af42;}.e{fill:#9f613c;}.f{fill:#9dc44c;}.g{fill:#d5a456;}.h{fill:#708739;}</style></defs><g id="a"/><g id="b"><g id="c"><g><path class="h" d="M7,4.33c2.29,2.29,2.65,3.85,1.92,4.59-.74,.74-2.29,.38-4.59-1.92C2.04,4.71,.61,.61,.61,.61c0,0,4.09,1.43,6.39,3.72Z"/><path class="h" d="M10.18,5.68c1.37,2.94,1.18,4.53,.23,4.97-.94,.44-2.28-.43-3.65-3.37-1.37-2.94-1.31-7.28-1.31-7.28,0,0,3.36,2.74,4.73,5.68Z"/><path class="h" d="M12.95,9.02c-1.35,2.95-2.68,3.83-3.63,3.4-.95-.43-1.15-2.02,.2-4.97S14.21,1.74,14.21,1.74c0,0,.09,4.34-1.26,7.29Z"/><path class="h" d="M11.68,7.48c-.19,3.24-1.11,4.54-2.15,4.48-1.04-.06-1.81-1.46-1.62-4.7,.19-3.24,2.3-7.03,2.3-7.03,0,0,1.66,4.01,1.47,7.25Z"/><path class="h" d="M14.63,10.3c-2.09,2.49-3.6,2.98-4.4,2.31-.8-.67-.57-2.25,1.51-4.74,2.09-2.49,6.04-4.26,6.04-4.26,0,0-1.06,4.2-3.15,6.69Z"/><path class="h" d="M5.68,10.18c2.94,1.37,4.53,1.18,4.97,.23,.44-.94-.43-2.28-3.37-3.65-2.94-1.37-7.28-1.31-7.28-1.31,0,0,2.74,3.36,5.68,4.73Z"/><path class="h" d="M9.02,12.95c2.95-1.35,3.83-2.68,3.4-3.63-.43-.95-2.02-1.15-4.97,.2-2.95,1.35-5.71,4.69-5.71,4.69,0,0,4.33,.09,7.28-1.26Z"/><path class="h" d="M7.48,11.68c3.24-.19,4.54-1.11,4.48-2.15-.06-1.04-1.46-1.81-4.7-1.62-3.24,.19-7.03,2.3-7.03,2.3,0,0,4.01,1.66,7.25,1.47Z"/><path class="h" d="M10.3,14.63c2.49-2.09,2.98-3.6,2.31-4.4-.67-.8-2.25-.57-4.74,1.51-2.49,2.09-4.26,6.04-4.26,6.04,0,0,4.2-1.06,6.69-3.15Z"/><path class="e" d="M25.27,13.69c3.75,3.75,2.7,7.89-.5,11.09-3.2,3.2-7.34,4.25-11.09,.5-3.75-3.75-6.91-12.1-3.71-15.29,3.2-3.2,11.55-.04,15.29,3.71Z"/><path class="g" d="M21.12,21.12c-.46,.46-.99,2.04-.57,2.46,.42,.42,2-.11,2.46-.57,.46-.46,.99-2.04,.57-2.46-.42-.42-2,.11-2.46,.57Z"/><path class="g" d="M23.85,23.85c-.46,.46-.85,2.17-.43,2.6,.42,.42,3.45-2.6,3.03-3.03-.42-.42-2.14-.03-2.6,.43Z"/><path class="g" d="M15.39,15.39c-.46,.46-.99,2.04-.57,2.46,.42,.42,2-.11,2.46-.57,.46-.46,.99-2.04,.57-2.46-.42-.42-2,.11-2.46,.57Z"/><path class="g" d="M18.25,18.25c-.46,.46-.99,2.04-.57,2.46,.42,.42,2-.11,2.46-.57,.46-.46,.99-2.04,.57-2.46-.42-.42-2,.11-2.46,.57Z"/><path class="g" d="M12.64,12.64c-.46,.46-.99,2.04-.57,2.46,.42,.42,2-.11,2.46-.57,.46-.46,.99-2.04,.57-2.46-.42-.42-2,.11-2.46,.57Z"/><path class="g" d="M12.72,23.44c-.65,.65-.47,2.72,1.68,3.26,.57,.14,1.64-3.49,1.22-3.91-.79-.79-2.48,.24-2.9,.65Z"/><path class="g" d="M16.15,26.09c-1.64,1.64,1.1,2.69,2.21,1.58,.42-.42,.55-1.59,.12-2.02-.42-.42-1.91,.02-2.33,.44Z"/><path class="g" d="M16.94,22.03c-.46,.46-.98,2.39-.56,2.81,.42,.42,2.45-.01,2.9-.47,.46-.46,.72-2.26,.29-2.68-.42-.42-2.18-.11-2.63,.34Z"/><path class="g" d="M19.85,24.93c-.46,.46-.83,2.2-.4,2.62,.79,.79,2.28,.16,2.73-.29,.46-.46,.72-2.31,.29-2.73-.42-.42-2.17-.05-2.62,.4Z"/><path class="g" d="M14.16,19.25c-.46,.46-1.1,2.27-.68,2.69,.42,.42,2.4-.07,2.85-.52,.46-.46,.83-2.2,.41-2.62-.42-.42-2.12,0-2.58,.45Z"/><path class="g" d="M8.71,13.72c-.46,.46-.67,1.71-.24,2.14,.42,.42,1.68,.21,2.14-.24,.46-.46,.99-2.04,.57-2.46s-2,.11-2.46,.57Z"/><path class="g" d="M8.74,16.9c-.42,.42,.36,3.05,.77,2.63,.42-.42,1.15-2.19,.72-2.62-.42-.42-1.08-.43-1.5-.02Z"/><path class="g" d="M10.46,20.32c-.54,.54-.66,2.92,.87,3.12,.58,.08,1.95-2.99,1.52-3.42-.42-.42-1.97-.12-2.39,.29Z"/><path class="g" d="M11.36,16.45c-.46,.46-.86,2.22-.44,2.64,.42,.42,2.24,.07,2.69-.38,.46-.46,.76-2.22,.33-2.64-.42-.42-2.13-.07-2.59,.38Z"/><path class="g" d="M23.44,12.72c.65-.65,2.72-.47,3.26,1.68,.14,.57-3.49,1.64-3.91,1.22-.79-.79,.24-2.48,.65-2.9Z"/><path class="g" d="M26.09,16.15c1.64-1.64,2.69,1.1,1.58,2.21-.42,.42-1.6,.55-2.02,.12-.42-.42,.02-1.91,.44-2.33Z"/><path class="g" d="M22.03,16.94c.46-.46,2.39-.98,2.81-.56s-.01,2.45-.47,2.9c-.46,.46-2.26,.71-2.68,.29-.42-.42-.11-2.18,.34-2.63Z"/><path class="g" d="M24.93,19.84c.46-.46,2.2-.83,2.62-.4,.79,.79,.16,2.28-.29,2.73-.46,.46-2.31,.72-2.73,.29-.42-.42-.05-2.17,.4-2.62Z"/><path class="g" d="M19.25,14.16c.46-.46,2.27-1.1,2.69-.68,.42,.42-.06,2.4-.52,2.85-.46,.46-2.2,.83-2.62,.41-.42-.42,0-2.12,.45-2.58Z"/><path class="g" d="M13.72,8.71c.46-.46,1.71-.67,2.14-.24,.42,.42,.21,1.68-.24,2.14-.46,.46-2.04,.99-2.46,.57-.42-.42,.11-2,.57-2.46Z"/><path class="g" d="M16.9,8.74c.42-.42,3.05,.36,2.63,.77-.42,.42-2.19,1.15-2.62,.72-.42-.42-.43-1.08-.02-1.5Z"/><path class="g" d="M20.32,10.46c.55-.54,2.92-.66,3.13,.87,.08,.58-2.99,1.95-3.42,1.52-.42-.42-.12-1.97,.29-2.39Z"/><path class="g" d="M16.45,11.36c.46-.46,2.22-.86,2.64-.44,.42,.42,.07,2.24-.38,2.69-.46,.46-2.22,.76-2.64,.33-.42-.42-.07-2.13,.38-2.59Z"/><path class="d" d="M9.33,7.7c1.75,1.75,2.12,2.85,1.66,3.3-.45,.45-1.55,.08-3.29-1.66-1.75-1.75-3.04-4.67-3.04-4.67,0,0,2.92,1.29,4.67,3.04Z"/><path class="d" d="M11.12,13.83c1.55-1.24,1.77-2.25,1.25-2.85-.52-.6-1.59-.57-3.14,.68-1.55,1.24-2.47,3.82-2.47,3.82,0,0,2.81-.41,4.35-1.65Z"/><path class="d" d="M9.09,10.39c2.18-.02,3.23,.55,3.39,1.27,.16,.72-.62,1.31-2.8,1.33-2.18,.02-5.11-1.26-5.11-1.26,0,0,2.33-1.33,4.51-1.35Z"/><path class="d" d="M8.86,8.62c2.24,.61,3.14,1.42,3.1,2.11-.04,.69-1.01,1-3.24,.4-2.24-.61-4.86-2.59-4.86-2.59,0,0,2.76-.53,5,.08Z"/><path class="d" d="M13.83,11.12c-1.24,1.55-2.25,1.77-2.85,1.25-.6-.52-.57-1.59,.68-3.14,1.24-1.55,3.82-2.47,3.82-2.47,0,0-.41,2.81-1.65,4.35Z"/><path class="d" d="M10.39,9.09c-.02,2.18,.55,3.23,1.27,3.39,.72,.16,1.31-.62,1.33-2.8,.02-2.18-1.26-5.11-1.26-5.11,0,0-1.33,2.33-1.35,4.51Z"/><path class="d" d="M8.62,8.86c.61,2.24,1.42,3.14,2.11,3.1,.69-.04,1-1.01,.4-3.24-.61-2.24-2.59-4.86-2.59-4.86,0,0-.53,2.76,.08,5Z"/><path class="f" d="M13.03,9.63c-.52-1.01-1.57-1.79-1.57-1.79,0,0-.36,.79-.56,1.7-1-.43-2.65-1.28-2.65-1.28,0,0,.85,1.65,1.28,2.65-.91,.2-1.7,.56-1.7,.56,0,0,.78,1.04,1.79,1.57-.77,1.09-1.15,2.57-1.15,2.57,0,0,2.92-.86,4.59-2.53,1.67-1.67,2.53-4.59,2.53-4.59,0,0-1.48,.38-2.57,1.15Z"/></g></g></g></svg>