<?xml version="1.0" encoding="UTF-8"?><svg xmlns="http://www.w3.org/2000/svg" viewBox="0 0 80 64.56"><defs><style>.d{fill:#f7e636;}.e{fill:#eee8cb;}.f{fill:#f4f4f4;}.g{fill:#8d652e;}.h{fill:#dcc72f;}.i{fill:#6eaade;}</style></defs><g id="a"/><g id="b"><g id="c"><g><path class="e" d="M20.54,44.92c8.65,11.62,22.41,1.47,13.76-10.15C18.58,20.72,18.99,.69,13.04,.02,5.56-.81,.01,19.89,20.54,44.92Z"/><path class="g" d="M75.39,43.13l4.61,3.66c-1.14,1.68-2.43,3.25-3.84,4.72-2.29-1.73-4.87-4.01-6.56-6.18,2.03-.57,3.97-1.3,5.79-2.21Z"/><path class="d" d="M37.05,17.54c9.59-2.28,15.84,4,15.84,4-9.06-4.51-22.46,5.74-20.51,9.01,6.84,11.41,20.32,17.99,34.25,15.48,1.01-.18,1.99-.43,2.96-.7,1.69,2.17,4.27,4.45,6.56,6.18-18.77,8.72-41.25,3.57-50.77-13.99-3.88-7.16,3.53-18.04,11.66-19.98Z"/><path class="h" d="M.01,46.18s1.83-7.11,10.9-10.47c8.85-3.27,14.47,1.8,14.47,1.8,7.19,11.99,21.34,18.89,35.98,16.25,4.38-.79,8.4-2.39,11.96-4.58,.94,.83,1.91,1.62,2.83,2.32-5.12,5.35-11.92,9.2-19.79,10.62-12.35,2.23-24.37-2.01-32.53-10.29C11.28,37.09,.01,46.18,.01,46.18Z"/><path class="f" d="M36.6,43.6c-3.9-2.28-5.89-6.11-4.44-8.54,.46-.78,1.24-1.3,2.19-1.6,.24,.31,.47,.63,.72,.93-.69,.25-1.27,.66-1.62,1.25-1.18,1.98,.44,5.09,3.61,6.94,3.08,1.8,6.47,1.74,7.74-.09,.49,.27,1,.53,1.51,.78-.01,.02-.02,.04-.03,.06-1.45,2.44-5.78,2.57-9.68,.29Z"/><path class="i" d="M44.8,42.48c-1.27,1.83-4.66,1.89-7.74,.09-3.17-1.85-4.78-4.96-3.61-6.94,.35-.59,.92-.99,1.62-1.25,2.69,3.31,6.01,6.05,9.73,8.1Z"/><path class="d" d="M.01,46.18c-.3,6.57,4.9,16.95,13.77,18.33,8.87,1.38-11.24-24.62,2.15-29.87,0,0-15.4-.02-15.92,11.54Z"/><path class="h" d="M34.77,18.32c19.8-7.59,26.5,15.69,16.61,12.93-3.59-1-5.62-7.86-16.61-12.93Z"/></g></g></g></svg>