<svg xmlns="http://www.w3.org/2000/svg" viewBox="0 0 80 80"><defs><style>.cls-1{fill:#eff6f7;}.cls-2{fill:#d2d8d9;}.cls-3{fill:#724e41;}.cls-4{fill:#8f6a54;}.cls-5{fill:#b59267;}.cls-6{fill:#f9f3d9;}.cls-7{opacity:0.6;}.cls-8{fill:#a6aeb0;}</style></defs><g id="Calque_2" data-name="Calque 2"><g id="Calque_1-2" data-name="Calque 1"><path class="cls-1" d="M62.91,48.44l3.8-3.14,7.7-.38L80,50.49c0-6.63-4.44-10.73-13.29-8.17a16.48,16.48,0,0,1-2.32.26Z"/><path class="cls-1" d="M76.83,50.17c0,6.2-14.58,7.83-19,10.94-1.87,1.31-5,7.14-5,7.14l25.9-15S76.83,45.36,76.83,50.17Z"/><path class="cls-2" d="M62.91,50.68l2.17-.51a7,7,0,0,1,2.09-3.6c2.22-2,9.68-1.54,9.68,3.28,0,7.93-15,10.37-19.43,13.48-1.86,1.31-4,5.36-4,5.36s1.62.3,2,0C62.2,63.08,80,60.74,80,50.25c0-3.77-5.47-8.49-13.29-5.68a13.69,13.69,0,0,1-2.32.26Z"/><path class="cls-2" d="M50.53,70.65H14.91s.46,3.68,5.22,6.67C21.89,78.42,26.07,80,32.72,80s10.84-1.58,12.59-2.68C50.07,74.33,50.53,70.65,50.53,70.65Z"/><path class="cls-1" d="M65.44,37.55H0s.85,15.6,9.59,28.21c3.23,4.67,10.92,11.37,23.13,11.37s19.9-6.7,23.13-11.37C64.59,53.15,65.44,37.55,65.44,37.55Z"/><ellipse class="cls-1" cx="32.72" cy="37.63" rx="32.72" ry="13.63"/><path class="cls-2" d="M32.72,29.57c15.06,0,27.62,4.3,30.57,10A5.55,5.55,0,0,0,64,37c0-7-14-12.6-31.23-12.6S1.5,30.06,1.5,37a5.66,5.66,0,0,0,.65,2.57C5.1,33.87,17.66,29.57,32.72,29.57Z"/><path class="cls-3" d="M32.72,49.61c15.06,0,27.62-4.3,30.57-10-2.95-5.72-15.51-10-30.57-10s-27.62,4.3-30.57,10C5.1,45.31,17.66,49.61,32.72,49.61Z"/><path class="cls-4" d="M53.68,36.21c-4.61-5.33-19.58-2.94-21-.28-1.91-2.84-16.5-4.95-21,.28C9,39.49,15.42,42.58,21.9,44.81c4.09,1.55,0,3.31,0,3.31a67,67,0,0,0,27.63-5.73C53.23,40.53,55.56,38.38,53.68,36.21Z"/><path class="cls-5" d="M46.05,38.08c-2.71-4.27-12.71-2.52-13.78-.42-1.09-2.27-10.57-4.09-13.83,0-2,2.58,2,5.1,6.16,6.93,2.59,1.27-.21,2.63-.21,2.63A40.06,40.06,0,0,0,42.94,43h0C45.49,41.51,47.16,39.83,46.05,38.08Z"/><path class="cls-6" d="M41.45,39.63c-1.81-2.86-8.5-1.69-9.22-.28-.72-1.52-7.08-2.74-9.25,0-1.37,1.73,1.35,3.41,4.12,4.64,1.73.85-.14,1.76-.14,1.76a26.81,26.81,0,0,0,12.41-2.87C41.08,41.93,42.2,40.8,41.45,39.63Z"/><g class="cls-7"><path class="cls-8" d="M34.51,12.55C29.59,7.44,32.86,0,32.86,0S22.53,9.83,29.05,16.61c7.56,7.84,3.81,12.72,3.81,12.72S42.22,20.56,34.51,12.55Z"/><path class="cls-8" d="M19.77,17.12C16.08,13.41,18.53,8,18.53,8s-7.75,7.15-2.85,12.08c5.66,5.71,2.85,9.25,2.85,9.25S25.55,23,19.77,17.12Z"/><path class="cls-8" d="M49.1,17.12C45.41,13.41,47.87,8,47.87,8S40.11,15.15,45,20.08c5.67,5.7,2.86,9.25,2.86,9.25S54.89,23,49.1,17.12Z"/></g></g></g></svg>