<?xml version="1.0" encoding="UTF-8"?><svg xmlns="http://www.w3.org/2000/svg" viewBox="0 0 80 80"><defs><style>.d{fill:#f6f2d8;}.e{fill:#694f44;}.f{fill:#f0f5f6;}.g{fill:#a6abad;}.h{fill:#a99069;}.i{fill:#d2d6d7;}.j{fill:#846a56;}.k{opacity:.6;}</style></defs><g id="a"/><g id="b"><g id="c"><g><path class="f" d="M62.91,48.44l3.8-3.13,7.69-.39,5.59,5.57c0-6.63-4.44-10.73-13.29-8.17-.56,.16-2.32,.26-2.32,.26l-1.48,5.86Z"/><path class="f" d="M76.83,50.17c0,6.19-14.58,7.82-19.02,10.94-1.86,1.31-5.02,7.14-5.02,7.14l25.9-14.99s-1.86-7.9-1.86-3.09Z"/><path class="i" d="M62.91,50.68l2.17-.5s.36-2.06,2.09-3.6c2.21-1.97,9.68-1.54,9.68,3.27,0,7.94-14.99,10.37-19.43,13.49-1.86,1.31-4,5.35-4,5.35,0,0,1.62,.3,1.98,0,6.8-5.61,24.6-7.95,24.6-18.44,0-3.76-5.47-8.48-13.29-5.68-.54,.19-2.32,.26-2.32,.26l-1.48,5.85Z"/><path class="i" d="M50.53,70.65H14.91s.47,3.69,5.22,6.67c1.76,1.1,5.95,2.68,12.59,2.68s10.84-1.58,12.59-2.68c4.76-2.98,5.22-6.67,5.22-6.67Z"/><path class="f" d="M65.44,37.55H0s.85,15.59,9.59,28.21c3.23,4.67,10.92,11.37,23.13,11.37s19.9-6.7,23.13-11.37c8.74-12.61,9.59-28.21,9.59-28.21Z"/><ellipse class="f" cx="32.72" cy="37.63" rx="32.72" ry="13.63"/><path class="i" d="M32.72,29.57c15.06,0,27.62,4.3,30.57,10.02,.43-.83,.66-1.69,.66-2.57,0-6.96-13.98-12.59-31.22-12.59S1.5,30.06,1.5,37.02c0,.88,.23,1.74,.65,2.57,2.95-5.72,15.51-10.02,30.57-10.02Z"/><path class="e" d="M32.72,49.61c15.06,0,27.62-4.3,30.57-10.03-2.94-5.72-15.51-10.02-30.57-10.02S5.1,33.87,2.15,39.59c2.95,5.72,15.51,10.03,30.57,10.03Z"/><path class="j" d="M53.68,36.21c-4.61-5.33-19.58-2.94-20.96-.28-1.9-2.84-16.5-4.95-20.96,.28-2.79,3.29,3.66,6.38,10.14,8.61,4.08,1.55,0,3.31,0,3.31,16.22,0,27.62-5.73,27.62-5.73,3.71-1.86,6.04-4.01,4.15-6.19Z"/><path class="h" d="M46.05,38.08c-2.71-4.27-12.71-2.52-13.79-.42-1.08-2.27-10.57-4.09-13.82,.02-2.04,2.58,2.03,5.09,6.16,6.93,2.59,1.27-.2,2.63-.2,2.63,10.68,.16,18.55-4.28,18.55-4.28h0c2.56-1.44,4.22-3.12,3.11-4.87Z"/><path class="d" d="M41.45,39.63c-1.81-2.86-8.51-1.69-9.23-.28-.72-1.52-7.07-2.74-9.25,.01-1.37,1.73,1.35,3.41,4.12,4.64,1.74,.85-.14,1.76-.14,1.76,7.15,.1,12.41-2.87,12.41-2.87,1.71-.96,2.83-2.09,2.08-3.26Z"/><g class="k"><path class="g" d="M34.51,12.55c-4.92-5.11-1.65-12.55-1.65-12.55,0,0-10.34,9.83-3.81,16.61,7.55,7.84,3.81,12.72,3.81,12.72,0,0,9.36-8.78,1.65-16.79Z"/><path class="g" d="M19.77,17.12c-3.69-3.71-1.24-9.12-1.24-9.12,0,0-7.75,7.15-2.86,12.08,5.67,5.7,2.86,9.25,2.86,9.25,0,0,7.02-6.38,1.24-12.21Z"/><path class="g" d="M49.1,17.12c-3.69-3.71-1.24-9.12-1.24-9.12,0,0-7.75,7.15-2.86,12.08,5.67,5.7,2.86,9.25,2.86,9.25,0,0,7.02-6.39,1.24-12.21Z"/></g></g></g></g></svg>