<?xml version="1.0" encoding="UTF-8"?><svg xmlns="http://www.w3.org/2000/svg" viewBox="0 0 27.9 26.04"><defs><style>.d{fill:#f7e446;}.e{fill:#8fb346;}.f{fill:#897053;}.g{fill:#708739;}.h{fill:#85a542;}.h,.i{fill-rule:evenodd;}.i{fill:#9dc44c;}</style></defs><g id="a"/><g id="b"><g id="c"><g><path class="h" d="M12.16,.3c-3.36-1.51-5.69,3.19-5.69,3.19,0,0,.96,2.2,2.48,2.67C14.33,7.79,19.01,.57,19.01,.57c0,0-3.54,1.22-6.85-.27Z"/><path class="f" d="M3.25,1.8c-.18-.02-.24,.68-.06,.71,2.96,.64,4.18,2.85,4.28,3.26,.14,.57,.97-.04,.69-.73-.06-.14-1.8-2.87-4.9-3.25Z"/><path class="g" d="M25.96,25.04c.12,.13,.71,.28,.98,0,.27-.28,.12-.88,0-1.01-.12-.13-.44,0-.71,.27-.27,.28-.39,.61-.26,.74Z"/><path class="d" d="M7.11,7c-.24-.32,.06-1.09,.71-1.76,.64-.67,1.38-.98,1.7-.73,3.9-2.53,9.87-1.35,14.15,3.08,3.82,3.96,5.14,9.31,3.63,13.29,.76,.98,.49,2.65-.67,3.84-1.16,1.2-2.77,1.48-3.72,.69-3.84,1.55-9,.19-12.82-3.77-4.28-4.43-5.42-10.6-2.97-14.65Z"/><path class="i" d="M7.75,5.63c-.68-1.95-3.54-3.07-3.54-3.07,0,0-5.87,3.31-3.74,7.6,2.1,4.23,.75,8.91,.75,8.91,0,0,8.94-6.53,6.54-13.44Z"/><path class="e" d="M4.21,2.55c-.42,.54-.77,1.15-1.07,1.81-.28,.66-.47,1.38-.57,2.12-.21,1.48-.02,2.95,.08,4.36,.12,1.42,.14,2.84-.1,4.23-.24,1.39-.74,2.73-1.34,4,.39-.57,.72-1.19,1.01-1.84,.28-.66,.51-1.35,.68-2.06,.34-1.43,.33-2.95,.22-4.38-.12-1.44-.31-2.85-.19-4.25,.11-1.41,.6-2.76,1.28-3.97Z"/></g></g></g></svg>