<svg xmlns="http://www.w3.org/2000/svg" viewBox="0 0 27.9 26.04"><defs><style>.cls-1{fill:#77a836;}.cls-1,.cls-5{fill-rule:evenodd;}.cls-2{fill:#947151;}.cls-3{fill:#64892f;}.cls-4{fill:#ffe62e;}.cls-5{fill:#8cc63e;}.cls-6{fill:#7fb539;}</style></defs><g id="Calque_2" data-name="Calque 2"><g id="Calque_1-2" data-name="Calque 1"><path class="cls-1" d="M12.16.3C8.8-1.21,6.47,3.49,6.47,3.49s1,2.2,2.48,2.67C14.33,7.79,19,.57,19,.57A10.29,10.29,0,0,1,12.16.3Z"/><path class="cls-2" d="M3.25,1.8c-.18,0-.24.68-.06.72A5.81,5.81,0,0,1,7.46,5.78c.14.57,1,0,.69-.73A7.23,7.23,0,0,0,3.25,1.8Z"/><path class="cls-3" d="M26,25a.83.83,0,0,0,1,0,.92.92,0,0,0,0-1c-.12-.13-.44,0-.71.27S25.83,24.91,26,25Z"/><path class="cls-4" d="M7.11,7c-.24-.32.06-1.09.71-1.75s1.38-1,1.69-.74C13.42,2,19.38,3.16,23.66,7.59c3.82,4,5.14,9.31,3.63,13.29.76,1,.49,2.65-.67,3.85s-2.77,1.47-3.71.68c-3.85,1.56-9,.2-12.83-3.76C5.8,17.22,4.66,11.05,7.11,7Z"/><path class="cls-5" d="M7.75,5.63c-.68-2-3.54-3.08-3.54-3.08S-1.66,5.86.46,10.15a13.71,13.71,0,0,1,.75,8.92S10.15,12.54,7.75,5.63Z"/><path class="cls-6" d="M4.21,2.55A8.55,8.55,0,0,0,3.14,4.36a8.29,8.29,0,0,0-.57,2.12,20.42,20.42,0,0,0,.08,4.36,16.62,16.62,0,0,1-.1,4.23,15.7,15.7,0,0,1-1.34,4,13.18,13.18,0,0,0,1-1.85,11.84,11.84,0,0,0,.68-2.06,14.36,14.36,0,0,0,.22-4.38,25.51,25.51,0,0,1-.19-4.26A9.52,9.52,0,0,1,4.21,2.55Z"/></g></g></svg>