<?xml version="1.0" encoding="UTF-8"?><svg xmlns="http://www.w3.org/2000/svg" viewBox="0 0 80 80"><defs><style>.d{fill:#faefef;}.e{fill:#9dc44c;}.f{fill:#cf4e3f;}.g{fill:#708739;}</style></defs><g id="a"/><g id="b"><g id="c"><g><path class="e" d="M28.73,14.76C30.62,9.61,44.94,0,44.94,0c0,0,4.5,17.17,2.61,22.31-1.89,5.15-7.63,7.63-12.83,5.55-5.2-2.09-7.88-7.95-5.99-13.1Z"/><path class="g" d="M20.21,25.08c-2.29-4.99,1.07-21.95,1.07-21.95,0,0,15.27,8.94,17.55,13.92,2.29,4.98-.03,10.82-5.17,13.04-5.14,2.22-11.17-.02-13.46-5Z"/><path class="e" d="M24.96,20.3c-4.97-2.3-21.85,1.08-21.85,1.08,0,0,8.9,15.33,13.86,17.63,4.96,2.3,10.77-.03,12.98-5.19,2.21-5.17-.02-11.23-4.98-13.52Z"/><path class="g" d="M14.69,28.86C9.56,30.76,0,45.15,0,45.15c0,0,17.09,4.52,22.21,2.63,5.13-1.9,7.6-7.67,5.53-12.89-2.08-5.23-7.92-7.92-13.05-6.02Z"/><path class="f" d="M66.05,19.62c15.33,15.4,17.08,48.96,9.85,56.23-7.31,7.34-40.55,5.5-55.94-9.97-11.34-11.39-6.03-28.57,5.78-40.43,11.77-11.83,28.98-17.22,40.32-5.83Z"/><path class="d" d="M51.66,18.29c-.71,0-1.32,.25-1.67,.75-.71,1.02-.08,2.69,1.41,3.73,.76,.53,1.59,.8,2.32,.8s1.32-.25,1.67-.75c.71-1.02,.08-2.69-1.41-3.73-.76-.53-1.59-.8-2.32-.8"/><path class="d" d="M56.52,41.65c-.44,0-.85,.13-1.17,.41-.94,.81-.73,2.59,.46,3.96,.79,.91,1.82,1.42,2.69,1.42,.44,0,.85-.13,1.17-.41,.94-.81,.73-2.59-.46-3.96-.79-.91-1.82-1.42-2.69-1.42"/><path class="d" d="M45.02,30.12c-.43,0-.82,.12-1.13,.39-.95,.8-.78,2.58,.4,3.97,.79,.94,1.82,1.46,2.71,1.46,.43,0,.82-.12,1.14-.39,.95-.8,.77-2.58-.4-3.97-.79-.94-1.82-1.46-2.71-1.46"/><path class="d" d="M64.66,31.44c-.28,0-.55,.06-.79,.19-1.09,.6-1.27,2.37-.39,3.97,.68,1.24,1.79,2.01,2.76,2.01,.28,0,.55-.06,.79-.2,1.09-.6,1.27-2.37,.39-3.97-.68-1.24-1.79-2.01-2.77-2.01"/><path class="d" d="M70.77,49.07c-.13,0-.27,.02-.4,.05-1.2,.31-1.81,1.99-1.35,3.75,.41,1.57,1.52,2.67,2.61,2.67,.13,0,.27-.02,.4-.05,1.2-.31,1.81-1.99,1.35-3.76-.41-1.57-1.52-2.67-2.61-2.67"/><path class="d" d="M69.21,65.62c-.46,0-.88,.14-1.2,.43-.92,.83-.68,2.6,.54,3.95,.8,.88,1.81,1.36,2.67,1.36,.46,0,.88-.14,1.21-.43,.92-.83,.68-2.6-.54-3.95-.79-.88-1.81-1.36-2.67-1.36"/><path class="d" d="M39.64,63.58c-.73,0-1.36,.26-1.71,.79-.69,1.03-.03,2.69,1.49,3.7,.75,.5,1.56,.75,2.28,.75s1.36-.26,1.71-.79c.69-1.03,.03-2.69-1.49-3.7-.75-.5-1.56-.75-2.28-.75"/><path class="d" d="M24.23,59.18c-.73,0-1.36,.26-1.71,.79-.69,1.03-.03,2.69,1.49,3.7,.75,.5,1.56,.75,2.28,.75s1.36-.26,1.71-.79c.69-1.03,.03-2.69-1.49-3.7-.75-.5-1.56-.75-2.27-.75"/><path class="d" d="M52.85,69.99c-1.05,0-1.92,.43-2.23,1.19-.46,1.15,.53,2.64,2.22,3.32,.57,.23,1.14,.34,1.67,.34,1.04,0,1.92-.43,2.23-1.19,.46-1.15-.53-2.64-2.21-3.32-.57-.23-1.14-.34-1.67-.34"/><path class="d" d="M55.81,56.7c-.81,0-1.5,.3-1.84,.88-.64,1.07,.12,2.69,1.68,3.62,.71,.42,1.47,.63,2.14,.63,.81,0,1.5-.3,1.84-.88,.63-1.07-.12-2.69-1.68-3.62-.71-.42-1.47-.63-2.14-.63"/><path class="d" d="M41.58,47.24c-.61,0-1.14,.2-1.49,.62-.79,.96-.3,2.67,1.1,3.84,.79,.65,1.7,.99,2.48,.99,.61,0,1.14-.2,1.49-.62,.79-.96,.3-2.68-1.1-3.84-.79-.65-1.7-.99-2.48-.99"/><path class="d" d="M30.05,29.2c-.5,0-.96,.16-1.29,.48-.89,.87-.57,2.63,.71,3.93,.8,.81,1.79,1.25,2.63,1.25,.5,0,.96-.16,1.29-.48,.89-.87,.57-2.63-.71-3.93-.8-.81-1.79-1.25-2.63-1.25"/><path class="d" d="M26.22,43.65c-.64,0-1.19,.21-1.54,.65-.77,.97-.24,2.68,1.19,3.81,.78,.62,1.67,.94,2.44,.94,.63,0,1.19-.21,1.54-.65,.77-.97,.24-2.68-1.19-3.81-.78-.62-1.67-.94-2.44-.94"/></g></g></g></svg>