<svg xmlns="http://www.w3.org/2000/svg" viewBox="0 0 80 80"><defs><style>.cls-1{fill:#8cc63e;}.cls-2{fill:#64892f;}.cls-3{fill:#ef4d3c;}.cls-4{fill:#fff0f0;}</style></defs><g id="Calque_2" data-name="Calque 2"><g id="Calque_1-2" data-name="Calque 1"><path class="cls-1" d="M28.73,14.76C30.62,9.61,44.94,0,44.94,0s4.5,17.17,2.61,22.31a9.68,9.68,0,0,1-12.83,5.55A10.41,10.41,0,0,1,28.73,14.76Z"/><path class="cls-2" d="M20.21,25.08c-2.29-5,1.07-21.95,1.07-21.95s15.27,8.94,17.56,13.92a9.76,9.76,0,0,1-5.17,13A10.32,10.32,0,0,1,20.21,25.08Z"/><path class="cls-1" d="M25,20.3C20,18,3.11,21.38,3.11,21.38S12,36.71,17,39a9.67,9.67,0,0,0,13-5.2A10.41,10.41,0,0,0,25,20.3Z"/><path class="cls-2" d="M14.69,28.86C9.56,30.76,0,45.15,0,45.15s17.09,4.52,22.21,2.63a9.77,9.77,0,0,0,5.53-12.89A10.36,10.36,0,0,0,14.69,28.86Z"/><path class="cls-3" d="M66.05,19.62c15.32,15.4,17.08,49,9.84,56.23s-40.54,5.5-55.94-10c-11.34-11.4-6-28.57,5.78-40.43S54.71,8.22,66.05,19.62Z"/><path class="cls-4" d="M51.66,18.29A2,2,0,0,0,50,19c-.71,1-.08,2.69,1.42,3.73a4.14,4.14,0,0,0,2.32.8,2,2,0,0,0,1.66-.75c.72-1,.09-2.69-1.4-3.73a4.19,4.19,0,0,0-2.33-.8"/><path class="cls-4" d="M56.52,41.65a1.72,1.72,0,0,0-1.17.41c-.94.81-.73,2.58.46,4a3.8,3.8,0,0,0,2.7,1.42A1.7,1.7,0,0,0,59.67,47c.94-.81.73-2.58-.46-4a3.79,3.79,0,0,0-2.69-1.42"/><path class="cls-4" d="M45,30.12a1.75,1.75,0,0,0-1.14.39c-1,.8-.77,2.58.4,4A3.75,3.75,0,0,0,47,35.94a1.74,1.74,0,0,0,1.14-.38c1-.8.77-2.58-.4-4A3.78,3.78,0,0,0,45,30.12"/><path class="cls-4" d="M64.66,31.44a1.68,1.68,0,0,0-.79.2c-1.09.59-1.26,2.37-.39,4a3.5,3.5,0,0,0,2.76,2,1.66,1.66,0,0,0,.79-.2c1.1-.6,1.27-2.37.4-4a3.5,3.5,0,0,0-2.77-2"/><path class="cls-4" d="M70.77,49.07a1.9,1.9,0,0,0-.4,0c-1.2.31-1.8,2-1.34,3.76.41,1.56,1.52,2.67,2.61,2.67a1.83,1.83,0,0,0,.4,0c1.2-.32,1.8-2,1.34-3.76-.41-1.57-1.52-2.67-2.61-2.67"/><path class="cls-4" d="M69.21,65.62a1.71,1.71,0,0,0-1.21.43c-.92.83-.68,2.6.54,4a3.82,3.82,0,0,0,2.68,1.36,1.75,1.75,0,0,0,1.2-.43c.92-.83.68-2.6-.54-4a3.8,3.8,0,0,0-2.67-1.36"/><path class="cls-4" d="M39.64,63.58a2,2,0,0,0-1.72.79c-.69,1,0,2.69,1.49,3.7a4.17,4.17,0,0,0,2.27.75A2,2,0,0,0,43.4,68c.69-1,0-2.68-1.49-3.7a4.17,4.17,0,0,0-2.27-.75"/><path class="cls-4" d="M24.23,59.18a2,2,0,0,0-1.71.79c-.69,1,0,2.69,1.48,3.7a4.2,4.2,0,0,0,2.28.75A2,2,0,0,0,28,63.63c.69-1,0-2.69-1.48-3.7a4.2,4.2,0,0,0-2.28-.75"/><path class="cls-4" d="M52.85,70a2.26,2.26,0,0,0-2.23,1.2c-.46,1.15.53,2.64,2.21,3.31a4.49,4.49,0,0,0,1.67.34,2.25,2.25,0,0,0,2.23-1.19c.46-1.15-.53-2.64-2.21-3.32A4.49,4.49,0,0,0,52.85,70"/><path class="cls-4" d="M55.81,56.7a2.07,2.07,0,0,0-1.85.88c-.63,1.07.12,2.69,1.68,3.62a4.3,4.3,0,0,0,2.14.63A2.07,2.07,0,0,0,59.63,61c.63-1.07-.12-2.69-1.69-3.62a4.26,4.26,0,0,0-2.13-.63"/><path class="cls-4" d="M41.58,47.24a1.87,1.87,0,0,0-1.49.62c-.79,1-.3,2.68,1.1,3.84a4.06,4.06,0,0,0,2.49,1,1.87,1.87,0,0,0,1.49-.62c.79-1,.3-2.68-1.1-3.84a4.06,4.06,0,0,0-2.49-1"/><path class="cls-4" d="M30.05,29.2a1.77,1.77,0,0,0-1.29.48c-.89.87-.57,2.63.71,3.92a3.87,3.87,0,0,0,2.63,1.25,1.76,1.76,0,0,0,1.28-.48c.89-.87.57-2.63-.7-3.92a3.85,3.85,0,0,0-2.63-1.25"/><path class="cls-4" d="M26.22,43.65a1.88,1.88,0,0,0-1.53.66c-.78,1-.25,2.68,1.18,3.81a4,4,0,0,0,2.44.93,1.89,1.89,0,0,0,1.54-.65c.77-1,.24-2.68-1.19-3.81a4,4,0,0,0-2.44-.94"/></g></g></svg>