<svg xmlns="http://www.w3.org/2000/svg" viewBox="0 0 28.13 28.13"><defs><style>.cls-1{fill:#9e7658;}.cls-2{fill:#89664c;}.cls-3{fill:#b2d921;}.cls-4{fill:#c7e755;}.cls-5{fill:#ecffad;}.cls-6{fill:#3e4347;}</style></defs><g id="Calque_2" data-name="Calque 2"><g id="Calque_1-2" data-name="Calque 1"><path class="cls-1" d="M16.71,28.12C-5.57,28.12-5.57,0,16.71,0Z"/><ellipse class="cls-2" cx="16.71" cy="14.06" rx="11.41" ry="14.06"/><ellipse class="cls-3" cx="16.71" cy="14.06" rx="10.75" ry="13.25"/><ellipse class="cls-4" cx="16.71" cy="14.06" rx="9.4" ry="11.58"/><path class="cls-3" d="M24.1,16.54c-.15.66-2.89,0-3.16.56s1.55,3.18,1.16,3.66-2.48-1.8-3-1.47.06,3.72-.47,3.89-1.42-3.09-2-3.09-1.45,3.25-2,3.07,0-3.56-.46-3.89-2.59,1.91-3,1.44,1.46-3.07,1.19-3.65-3,.07-3.16-.59,2.51-1.75,2.51-2.43-2.64-1.78-2.49-2.45,2.89,0,3.15-.56-1.54-3.19-1.16-3.66,2.49,1.79,3,1.46,0-3.71.48-3.89S16.18,8,16.73,8s1.45-3.25,2-3.07,0,3.56.46,3.89,2.58-1.9,3-1.43S20.69,10.48,21,11.07s3-.07,3.15.58-2.5,1.75-2.5,2.43S24.25,15.87,24.1,16.54Z"/><polygon class="cls-5" points="22.96 14.06 19.18 14.88 22.12 17.91 18.52 16.28 19.84 20.72 17.38 17.1 16.71 21.75 16.05 17.1 13.59 20.72 14.91 16.28 11.31 17.91 14.25 14.88 10.47 14.06 14.25 13.25 11.31 10.21 14.91 11.84 13.59 7.4 16.05 11.03 16.71 6.37 17.38 11.03 19.84 7.4 18.52 11.84 22.12 10.21 19.18 13.25 22.96 14.06"/><polygon class="cls-6" points="15.42 7.21 15.21 8.34 15.82 9.23 16.03 8.1 15.42 7.21"/><polygon class="cls-6" points="14.23 5.63 14.02 6.76 14.63 7.65 14.84 6.51 14.23 5.63"/><polygon class="cls-6" points="18.47 6.96 17.67 7.58 17.59 8.74 18.39 8.12 18.47 6.96"/><polygon class="cls-6" points="18 20.91 18.21 19.78 17.6 18.89 17.39 20.03 18 20.91"/><polygon class="cls-6" points="19.2 22.5 19.41 21.36 18.79 20.48 18.59 21.61 19.2 22.5"/><polygon class="cls-6" points="14.96 21.16 15.76 20.54 15.84 19.38 15.04 20 14.96 21.16"/><polygon class="cls-6" points="22.27 12.47 21.35 12.21 20.64 12.97 21.55 13.22 22.27 12.47"/><polygon class="cls-6" points="23.56 11 22.64 10.75 21.92 11.5 22.84 11.76 23.56 11"/><polygon class="cls-6" points="22.47 16.22 21.97 15.24 21.03 15.14 21.53 16.13 22.47 16.22"/><polygon class="cls-6" points="11.15 15.65 12.07 15.91 12.79 15.16 11.87 14.9 11.15 15.65"/><polygon class="cls-6" points="9.87 17.12 10.79 17.38 11.51 16.63 10.59 16.37 9.87 17.12"/><polygon class="cls-6" points="10.95 11.9 11.46 12.89 12.4 12.98 11.89 12 10.95 11.9"/><polygon class="cls-6" points="21.17 9.67 20.25 9.93 19.87 10.99 20.79 10.73 21.17 9.67"/><polygon class="cls-6" points="21.81 7.66 20.89 7.92 20.51 8.98 21.43 8.72 21.81 7.66"/><polygon class="cls-6" points="11.61 20.46 12.53 20.21 12.92 19.15 12 19.4 11.61 20.46"/><polygon class="cls-6" points="13.15 8.57 13.36 9.7 14.22 10.18 14.01 9.04 13.15 8.57"/><polygon class="cls-6" points="11.52 7.78 11.73 8.91 12.59 9.38 12.38 8.25 11.52 7.78"/><polygon class="cls-6" points="21.91 20.35 21.7 19.21 20.84 18.74 21.05 19.87 21.91 20.35"/></g></g></svg>