<?xml version="1.0" encoding="UTF-8"?><svg xmlns="http://www.w3.org/2000/svg" viewBox="0 0 204.49 44.65"><defs><style>.d{fill:#7db96f;}</style></defs><g id="a"/><g id="b"><g id="c"><g><path class="d" d="M2.25,32.75c-1.5-1.3-2.25-3.03-2.25-5.2,0-3.17,.79-6.1,2.38-8.8,1.58-2.7,3.7-4.84,6.35-6.43,2.65-1.58,5.51-2.38,8.58-2.38,1.87,0,3.43,.53,4.7,1.58,1.27,1.05,1.9,2.59,1.9,4.62,0,1.17-.38,2.12-1.12,2.88s-1.83,1.42-3.23,2c-1.4,.58-3.67,1.41-6.8,2.48-2.83,.93-5.13,1.72-6.9,2.35-.13,.5-.2,1.02-.2,1.55,0,.93,.39,1.65,1.17,2.15,.78,.5,1.89,.75,3.33,.75,.9,0,1.93-.18,3.1-.55,1.17-.37,1.9-.83,2.2-1.4,1.13-2.07,2.17-3.1,3.1-3.1,1.37,0,2.29,.26,2.77,.77,.48,.52,.74,1.09,.77,1.73-.4,1.07-1.18,2.14-2.35,3.23-1.17,1.08-2.65,1.97-4.45,2.67s-3.77,1.05-5.9,1.05c-3.27,0-5.65-.65-7.15-1.95Zm13.15-14.48c2.13-.92,3.2-1.83,3.2-2.73,0-.4-.22-.73-.65-.98-.43-.25-.9-.38-1.4-.38-1,0-2.14,.38-3.42,1.15-1.28,.77-2.48,1.7-3.58,2.8s-1.87,2.13-2.3,3.1c3.3-1.07,6.02-2.06,8.15-2.98Z"/><path class="d" d="M28.65,10.45c0-.33,.37-.61,1.1-.82,.73-.22,1.75-.33,3.05-.33,1.17,0,1.95,.33,2.35,.98s.65,1.49,.75,2.52c-.07,.27-.13,.63-.2,1.1l-.25,1.2c.97-1.13,2.4-2.24,4.3-3.33,1.9-1.08,3.38-1.62,4.45-1.62,1.67,0,2.82,.29,3.47,.88,.65,.58,1.03,1.69,1.12,3.33,1.23-1.17,2.65-2.16,4.25-2.98,1.6-.82,3-1.23,4.2-1.23,1.27,0,2.43,.26,3.5,.77,1.07,.52,1.6,1.34,1.6,2.48,0,.3-.02,.53-.05,.7-.1,.53-.29,1.27-.57,2.22-.28,.95-.49,1.64-.62,2.08-.83,2.7-1.48,4.98-1.93,6.83-.45,1.85-.72,3.66-.82,5.42l.7,2.45c-.4,.77-.96,1.38-1.67,1.82-.72,.45-1.76,.68-3.12,.68-.8,0-1.38-.27-1.75-.8-.37-.53-.55-1.2-.55-2,0-.17,.02-.35,.05-.55,.03-.2,.05-.38,.05-.55,.07-1.87,.34-3.76,.83-5.67,.48-1.92,1.11-4.08,1.88-6.48,.7-2.1,1.05-3.38,1.05-3.85,0-.2-.02-.41-.07-.62-.05-.22-.11-.32-.18-.32-.77,0-2.02,.37-3.77,1.1-1.75,.73-2.92,1.47-3.52,2.2-.63,2.03-1.68,6.27-3.15,12.7l-.3,1.4c-.17,.87-.32,1.47-.47,1.8-.15,.33-.44,.58-.88,.75-.43,.17-1.13,.25-2.1,.25-2.3,0-3.45-.47-3.45-1.4,.27-.73,1-3.55,2.2-8.45,.73-3.03,1.57-6.38,2.5-10.05-.2,.1-.57,.25-1.1,.45-1.6,.63-2.99,1.28-4.17,1.95-1.18,.67-2.14,1.45-2.88,2.35l-1.3,5.3c-.2,.8-.38,1.54-.55,2.22-.17,.68-.32,1.26-.45,1.73-.17,.57-.28,1.33-.35,2.3-.07,.67-.16,1.15-.27,1.45-.12,.3-.4,.54-.85,.73-.45,.18-1.16,.27-2.12,.27-1.1,0-1.93-.12-2.5-.35-.57-.23-.85-.73-.85-1.5,0-.37,.42-2.32,1.27-5.85s2.01-8.13,3.48-13.8l-1.15-1.5c-.1-.1-.15-.22-.15-.35Z"/><path class="d" d="M67.15,31.15c-1.63-2-2.45-4.55-2.45-7.65,0-2.6,.56-4.98,1.68-7.15,1.12-2.17,2.68-3.88,4.7-5.12,2.02-1.25,4.33-1.88,6.93-1.88,2.9,0,4.85,.25,5.85,.75,.3,.13,.57,.34,.8,.62,.23,.28,.35,.56,.35,.82,0,.33-.08,.68-.23,1.05-.15,.37-.38,.65-.67,.85,.77,.07,1.42,.44,1.95,1.12,.53,.68,.93,1.48,1.2,2.38,.27,.9,.4,1.68,.4,2.35,0,2.37-.58,4.7-1.73,7-1.15,2.3-2.76,4.18-4.82,5.65-2.07,1.47-4.43,2.2-7.1,2.2-2.93,0-5.22-1-6.85-3Zm10.88-2.73c1.12-1.05,2.04-2.44,2.77-4.17,.73-1.73,1.1-3.55,1.1-5.45,0-.37-.12-.7-.38-1-.25-.3-.59-.62-1.02-.95-.23-.17-.44-.34-.62-.53-.18-.18-.27-.36-.27-.52,0-.13,.04-.32,.12-.55,.08-.23,.12-.4,.12-.5,0-.5-.62-.75-1.85-.75-1.37,0-2.62,.55-3.77,1.65-1.15,1.1-2.05,2.5-2.7,4.2-.65,1.7-.98,3.37-.98,5,0,.97,.22,1.84,.65,2.62,.43,.78,.98,1.4,1.62,1.85,.65,.45,1.29,.68,1.93,.68,1.07,0,2.16-.52,3.27-1.58Z"/><path class="d" d="M96.85,11.55c0-.87,.28-1.46,.85-1.77,.57-.32,1.43-.48,2.6-.48,.97,0,1.67,.27,2.12,.8s.67,1.17,.67,1.9c0,.2-.03,.47-.1,.8-2.2,9.1-3.97,16.2-5.3,21.3-.9,3.5-2.22,6.13-3.95,7.9-1.73,1.77-4.18,2.65-7.35,2.65-.87,0-1.82-.17-2.85-.52-1.03-.35-1.92-.87-2.65-1.55-.73-.68-1.1-1.47-1.1-2.38,0-.63,.16-1.11,.48-1.42,.32-.32,.96-.48,1.92-.48,.27,0,.53,.2,.8,.6,.27,.4,.64,.74,1.12,1.02,.48,.28,1.31,.43,2.47,.43s2.16-.5,2.98-1.5,1.44-2.42,1.88-4.25l5.45-22.3c-.03-.17-.05-.42-.05-.75Zm1.12-10.35c.65-.8,1.56-1.2,2.73-1.2,1.23,0,2.31,.38,3.23,1.15,.92,.77,1.38,1.63,1.38,2.6s-.47,1.8-1.4,2.5c-.93,.7-2.02,1.05-3.25,1.05s-2.11-.31-2.73-.92c-.62-.62-.92-1.43-.92-2.43s.32-1.95,.97-2.75Z"/><path class="d" d="M125.12,33.67c-.45,.22-1.06,.33-1.83,.33-2.33,0-3.5-.52-3.5-1.55l2.1-5.8c-1.37,2.77-2.97,4.8-4.8,6.1-1.83,1.3-3.55,1.95-5.15,1.95-2.07,0-3.52-.64-4.38-1.92s-1.27-3.16-1.27-5.62c0-.5,.08-1.12,.25-1.85l3.15-13.35c.17-.73,.5-1.27,1-1.62,.5-.35,1.33-.52,2.5-.52,1.77,0,2.65,.48,2.65,1.45,0,.27-.1,.9-.3,1.9l-3.1,13.4c-.2,.6-.3,1.15-.3,1.65,0,1.27,.5,1.9,1.5,1.9,.93,0,2.2-1.05,3.8-3.15,1.6-2.1,3.12-4.57,4.58-7.4,1.45-2.83,2.38-5.17,2.77-7,.17-.73,.34-1.27,.52-1.62,.18-.35,.51-.62,.98-.8,.47-.18,1.17-.27,2.1-.27,1.8,0,2.7,.53,2.7,1.6,0,.23-.1,.65-.3,1.25-.53,2.53-1.37,5.88-2.5,10.05-1.27,5.1-2.03,8.35-2.3,9.75-.13,.57-.43,.96-.88,1.17Z"/><path class="d" d="M139.8,29.05c-.13,.53-.2,1.12-.2,1.75l.05,1.4c0,.57-.17,.97-.52,1.2-.35,.23-1.09,.37-2.23,.4-1.1,0-1.93-.12-2.5-.35-.57-.23-.85-.73-.85-1.5,0-.37,.42-2.32,1.27-5.85s2.01-8.13,3.48-13.8l-1.15-1.5c-.1-.1-.15-.22-.15-.35,0-.33,.37-.61,1.1-.82,.73-.22,1.75-.33,3.05-.33,1.13,0,1.86,.33,2.18,.98,.32,.65,.49,1.49,.52,2.52-1.77,7.2-3.12,12.62-4.05,16.25Zm-.23-27.85c.65-.8,1.56-1.2,2.73-1.2,1.23,0,2.31,.38,3.22,1.15,.92,.77,1.38,1.63,1.38,2.6s-.47,1.8-1.4,2.5c-.93,.7-2.02,1.05-3.25,1.05s-2.11-.31-2.73-.92c-.62-.62-.92-1.43-.92-2.43s.33-1.95,.98-2.75Z"/><path class="d" d="M167.47,29.85c-1.35,1.33-2.99,2.47-4.93,3.42-1.93,.95-3.95,1.42-6.05,1.42-1.7,0-3.29-.32-4.77-.95-1.48-.63-2.68-1.6-3.58-2.9-.9-1.3-1.35-2.88-1.35-4.75,0-3.13,.62-5.92,1.85-8.35,1.23-2.43,2.99-4.34,5.27-5.73,2.28-1.38,4.93-2.08,7.93-2.08,1.93,0,3.61,.57,5.02,1.7,1.42,1.13,2.14,2.63,2.17,4.5,0,.73-.25,1.34-.75,1.83-.5,.48-1.23,.72-2.2,.72-.77,0-1.33-.17-1.68-.52s-.69-.89-1.02-1.62c-.33-.77-.7-1.35-1.1-1.75s-1.03-.6-1.9-.6c-1,0-2.1,.53-3.3,1.58-1.2,1.05-2.22,2.52-3.05,4.4-.83,1.88-1.25,4.01-1.25,6.38,0,1,.39,1.88,1.18,2.62,.78,.75,1.86,1.12,3.22,1.12,1.13,0,2.2-.38,3.2-1.12s2.15-1.82,3.45-3.23c.83-.87,1.49-1.5,1.97-1.9,.48-.4,.91-.6,1.28-.6,1.67,0,2.65,.92,2.95,2.75-.37,1.1-1.23,2.32-2.57,3.65Z"/><path class="d" d="M173.55,32.75c-1.5-1.3-2.25-3.03-2.25-5.2,0-3.17,.79-6.1,2.38-8.8,1.58-2.7,3.7-4.84,6.35-6.43,2.65-1.58,5.51-2.38,8.58-2.38,1.87,0,3.43,.53,4.7,1.58,1.27,1.05,1.9,2.59,1.9,4.62,0,2.27-.84,4.06-2.52,5.38-1.68,1.32-3.8,2.28-6.35,2.9-2.55,.62-5.61,1.09-9.18,1.43-.13,.5-.2,1.02-.2,1.55,0,.93,.39,1.65,1.17,2.15,.78,.5,1.89,.75,3.33,.75,1.07,0,2.29-.22,3.67-.65,1.38-.43,2.44-1.15,3.18-2.15,.4-.57,.91-1.02,1.52-1.35,.62-.33,1.21-.5,1.77-.5,.53,0,.97,.17,1.3,.52,.33,.35,.5,.88,.5,1.58-.4,1.07-1.18,2.14-2.35,3.23-1.17,1.08-2.65,1.97-4.45,2.67s-3.77,1.05-5.9,1.05c-3.27,0-5.65-.65-7.15-1.95Zm9.4-12.05c1.77-.33,3.37-.92,4.8-1.77,1.43-.85,2.15-1.98,2.15-3.38,0-.4-.22-.73-.65-.98-.43-.25-.9-.38-1.4-.38-1,0-2.14,.38-3.42,1.15-1.28,.77-2.48,1.7-3.58,2.8s-1.87,2.13-2.3,3.1c1.17-.03,2.63-.22,4.4-.55Z"/><path class="d" d="M203.93,31.8c-.37,.63-.89,1.12-1.55,1.48-.66,.35-1.42,.53-2.27,.53-1.09,0-1.96-.24-2.59-.72-.64-.48-.96-1.18-.96-2.1,0-.78,.2-1.5,.6-2.15s.95-1.17,1.66-1.56c.71-.38,1.5-.57,2.37-.57,.57,0,1.1,.11,1.6,.33,.5,.22,.91,.55,1.22,.99,.31,.44,.47,.99,.47,1.62,0,.8-.19,1.52-.56,2.15Zm-1.89,.65c.45-.3,.79-.69,1.02-1.17s.35-.99,.35-1.53c0-.45-.1-.83-.31-1.15s-.49-.57-.84-.74-.73-.25-1.12-.25c-.54,0-1.08,.14-1.62,.42-.54,.28-.98,.67-1.33,1.18-.35,.51-.52,1.09-.52,1.75,0,.61,.23,1.08,.7,1.42,.47,.34,1.17,.52,2.1,.52,.61,0,1.13-.15,1.58-.44Zm-3.14-3.65c.2-.11,.42-.2,.65-.28,.14-.19,.32-.28,.54-.28,.12,0,.22,.03,.3,.1,.11-.03,.26-.05,.43-.05,.27,0,.51,.06,.72,.17,.2,.11,.36,.26,.46,.44s.16,.36,.16,.54c0,.35-.12,.65-.37,.89-.25,.24-.54,.38-.89,.42l.4,.4c.25,.25,.4,.38,.43,.38h.09c.07,.01,.16,.08,.25,.2s.14,.22,.14,.32c0,.13-.08,.23-.25,.28-.02,0-.06,.03-.13,.06-.07,.03-.15,.05-.23,.05-.06,0-.13-.02-.22-.05-.51-.21-.96-.73-1.33-1.57l-.27,1.05c-.05,.17-.11,.31-.19,.4-.08,.1-.22,.15-.41,.15-.18,0-.31-.03-.4-.1-.08-.07-.12-.18-.12-.35,0-.1,.21-.95,.63-2.56l-.38,.18c-.12-.08-.2-.15-.25-.21-.05-.06-.07-.14-.07-.22,0-.13,.1-.24,.31-.35Zm1.96,1.18c.21-.13,.31-.29,.31-.46,0-.1-.04-.2-.12-.29-.08-.09-.19-.13-.33-.13-.11,0-.2,.01-.28,.04l-.22,1.05c.22,0,.43-.08,.64-.21Z"/></g></g></g></svg>