<svg xmlns="http://www.w3.org/2000/svg" viewBox="0 0 204.49 44.65"><defs><style>.cls-1{fill:#57bb6b;}</style></defs><g id="Calque_2" data-name="Calque 2"><g id="Calque_1-2" data-name="Calque 1"><path class="cls-1" d="M2.25,32.75A6.53,6.53,0,0,1,0,27.55a17,17,0,0,1,2.38-8.8,17.92,17.92,0,0,1,6.34-6.43A16.49,16.49,0,0,1,17.3,10,7.07,7.07,0,0,1,22,11.53a5.63,5.63,0,0,1,1.9,4.62A3.9,3.9,0,0,1,22.77,19a10,10,0,0,1-3.22,2q-2.1.87-6.8,2.47c-2.83.93-5.13,1.72-6.9,2.35a6.16,6.16,0,0,0-.2,1.55,2.41,2.41,0,0,0,1.17,2.15,6.22,6.22,0,0,0,3.33.75,10.41,10.41,0,0,0,3.1-.55,3.58,3.58,0,0,0,2.2-1.4c1.13-2.07,2.17-3.1,3.1-3.1a3.74,3.74,0,0,1,2.77.78,2.62,2.62,0,0,1,.78,1.72A8.65,8.65,0,0,1,19.75,31a13.74,13.74,0,0,1-4.45,2.68A16.16,16.16,0,0,1,9.4,34.7Q4.49,34.7,2.25,32.75ZM15.4,18.28c2.13-.92,3.2-1.83,3.2-2.73a1.12,1.12,0,0,0-.65-1,2.74,2.74,0,0,0-1.4-.37,6.88,6.88,0,0,0-3.43,1.15,18.58,18.58,0,0,0-3.57,2.8,10.77,10.77,0,0,0-2.3,3.1Q12.2,19.65,15.4,18.28Z"/><path class="cls-1" d="M28.65,10.45c0-.33.37-.61,1.1-.83a11.53,11.53,0,0,1,3-.32,2.52,2.52,0,0,1,2.35,1,5.82,5.82,0,0,1,.75,2.52c-.07.27-.13.63-.2,1.1l-.25,1.2a16.14,16.14,0,0,1,4.3-3.32,10,10,0,0,1,4.45-1.63,5.19,5.19,0,0,1,3.47.88,4.8,4.8,0,0,1,1.13,3.32,17.77,17.77,0,0,1,4.25-3,9.49,9.49,0,0,1,4.2-1.23,8,8,0,0,1,3.5.77,2.59,2.59,0,0,1,1.6,2.48,4.12,4.12,0,0,1-.05.7,21.44,21.44,0,0,1-.58,2.22c-.28,1-.49,1.65-.62,2.08-.83,2.7-1.48,5-1.93,6.82a30.14,30.14,0,0,0-.82,5.43l.7,2.45a4.61,4.61,0,0,1-1.68,1.82,5.78,5.78,0,0,1-3.12.68,2,2,0,0,1-1.75-.8,3.42,3.42,0,0,1-.55-2,3.74,3.74,0,0,1,0-.55,3.74,3.74,0,0,0,0-.55A27.42,27.42,0,0,1,52.87,26c.49-1.92,1.11-4.08,1.88-6.48a19.25,19.25,0,0,0,1-3.85,2.86,2.86,0,0,0-.08-.63c0-.21-.1-.32-.17-.32a11.61,11.61,0,0,0-3.78,1.1,9.25,9.25,0,0,0-3.52,2.2q-.95,3-3.15,12.7l-.3,1.4a9.25,9.25,0,0,1-.48,1.8,1.5,1.5,0,0,1-.87.75,6.24,6.24,0,0,1-2.1.25c-2.3,0-3.45-.47-3.45-1.4q.41-1.09,2.2-8.45,1.09-4.55,2.5-10c-.2.1-.57.25-1.1.45a33.76,33.76,0,0,0-4.18,1.95,10,10,0,0,0-2.87,2.35l-1.3,5.3-.55,2.22c-.17.69-.32,1.26-.45,1.73a11.2,11.2,0,0,0-.35,2.3,5.92,5.92,0,0,1-.28,1.45,1.41,1.41,0,0,1-.85.73,6.09,6.09,0,0,1-2.12.27,7,7,0,0,1-2.5-.35A1.44,1.44,0,0,1,25.2,32q0-.56,1.27-5.85T30,12.3L28.8,10.8A.49.49,0,0,1,28.65,10.45Z"/><path class="cls-1" d="M67.15,31.15A11.72,11.72,0,0,1,64.7,23.5a15.46,15.46,0,0,1,1.67-7.15A12.67,12.67,0,0,1,78,9.35q4.35,0,5.85.75a2.14,2.14,0,0,1,.8.62,1.35,1.35,0,0,1,.35.83,2.81,2.81,0,0,1-.23,1,1.79,1.79,0,0,1-.67.85,2.72,2.72,0,0,1,2,1.12A7.31,7.31,0,0,1,87.25,17a8.31,8.31,0,0,1,.4,2.35,15.5,15.5,0,0,1-1.73,7A15.08,15.08,0,0,1,81.1,32a11.94,11.94,0,0,1-7.1,2.2A8.35,8.35,0,0,1,67.15,31.15ZM78,28.42a11.94,11.94,0,0,0,2.78-4.17,13.89,13.89,0,0,0,1.1-5.45,1.52,1.52,0,0,0-.38-1,6.41,6.41,0,0,0-1-.95,5.51,5.51,0,0,1-.63-.53.76.76,0,0,1-.27-.52,1.83,1.83,0,0,1,.12-.55,1.57,1.57,0,0,0,.13-.5c0-.5-.62-.75-1.85-.75a5.37,5.37,0,0,0-3.78,1.65,11.28,11.28,0,0,0-2.7,4.2,14,14,0,0,0-1,5,5.33,5.33,0,0,0,.65,2.62,5.16,5.16,0,0,0,1.62,1.85,3.33,3.33,0,0,0,1.93.68A4.87,4.87,0,0,0,78,28.42Z"/><path class="cls-1" d="M96.85,11.55a1.83,1.83,0,0,1,.85-1.77,5.46,5.46,0,0,1,2.6-.48,2.62,2.62,0,0,1,2.12.8,2.86,2.86,0,0,1,.68,1.9,4,4,0,0,1-.1.8q-3.3,13.65-5.3,21.3a17.27,17.27,0,0,1-4,7.9q-2.59,2.66-7.35,2.65a8.93,8.93,0,0,1-2.85-.53,7,7,0,0,1-2.65-1.55,3.15,3.15,0,0,1-1.1-2.37,1.94,1.94,0,0,1,.47-1.42,2.79,2.79,0,0,1,1.93-.48c.27,0,.53.2.8.6a3.36,3.36,0,0,0,1.12,1,5.16,5.16,0,0,0,2.48.43,3.69,3.69,0,0,0,3-1.5,10.43,10.43,0,0,0,1.88-4.25L96.9,12.3A4.53,4.53,0,0,1,96.85,11.55ZM98,1.2A3.32,3.32,0,0,1,100.7,0a4.84,4.84,0,0,1,3.22,1.15,3.34,3.34,0,0,1,1.38,2.6,3.07,3.07,0,0,1-1.4,2.5,5.27,5.27,0,0,1-3.25,1,3.74,3.74,0,0,1-2.73-.92A3.32,3.32,0,0,1,97,4,4.24,4.24,0,0,1,98,1.2Z"/><path class="cls-1" d="M125.12,33.67a4.17,4.17,0,0,1-1.82.33c-2.33,0-3.5-.52-3.5-1.55l2.1-5.8a15.94,15.94,0,0,1-4.8,6.1,9.05,9.05,0,0,1-5.15,2q-3.11,0-4.38-1.92a10.25,10.25,0,0,1-1.27-5.63,8.38,8.38,0,0,1,.25-1.85L109.7,12a2.62,2.62,0,0,1,1-1.63,4.5,4.5,0,0,1,2.5-.52c1.77,0,2.65.48,2.65,1.45a13.49,13.49,0,0,1-.3,1.9l-3.1,13.4a5.26,5.26,0,0,0-.3,1.65c0,1.27.5,1.9,1.5,1.9s2.2-1.05,3.8-3.15a49.31,49.31,0,0,0,4.57-7.4,30.75,30.75,0,0,0,2.78-7,7.84,7.84,0,0,1,.52-1.63,1.82,1.82,0,0,1,1-.8,6.2,6.2,0,0,1,2.1-.27c1.8,0,2.7.53,2.7,1.6a4.83,4.83,0,0,1-.3,1.25q-.8,3.8-2.5,10.05Q126.4,30.4,126,32.5A1.6,1.6,0,0,1,125.12,33.67Z"/><path class="cls-1" d="M139.8,29.05a7.38,7.38,0,0,0-.2,1.75l.05,1.4a1.33,1.33,0,0,1-.53,1.2,4.83,4.83,0,0,1-2.22.4,6.92,6.92,0,0,1-2.5-.35,1.44,1.44,0,0,1-.85-1.5q0-.56,1.27-5.85t3.48-13.8l-1.15-1.5a.49.49,0,0,1-.15-.35c0-.33.37-.61,1.1-.83a11.53,11.53,0,0,1,3.05-.32c1.13,0,1.86.32,2.17,1a6.25,6.25,0,0,1,.53,2.52Q141.2,23.6,139.8,29.05ZM139.57,1.2A3.32,3.32,0,0,1,142.3,0a4.84,4.84,0,0,1,3.22,1.15,3.34,3.34,0,0,1,1.38,2.6,3.07,3.07,0,0,1-1.4,2.5,5.29,5.29,0,0,1-3.25,1,3.74,3.74,0,0,1-2.73-.92A3.32,3.32,0,0,1,138.6,4,4.24,4.24,0,0,1,139.57,1.2Z"/><path class="cls-1" d="M167.47,29.85a19,19,0,0,1-4.92,3.43,13.7,13.7,0,0,1-6.05,1.42,12.14,12.14,0,0,1-4.78-1,7.92,7.92,0,0,1-4.92-7.65,18.13,18.13,0,0,1,1.85-8.35A13.87,13.87,0,0,1,153.92,12,15,15,0,0,1,161.85,10a7.8,7.8,0,0,1,5,1.7,5.62,5.62,0,0,1,2.18,4.5A2.42,2.42,0,0,1,168.3,18a3,3,0,0,1-2.2.73,2.26,2.26,0,0,1-1.68-.53,5.53,5.53,0,0,1-1-1.62,5.74,5.74,0,0,0-1.1-1.75,2.61,2.61,0,0,0-1.9-.6,5.21,5.21,0,0,0-3.3,1.58,12.26,12.26,0,0,0-3,4.39,15.52,15.52,0,0,0-1.25,6.38A3.52,3.52,0,0,0,154,29.17a4.49,4.49,0,0,0,3.23,1.13,5.25,5.25,0,0,0,3.2-1.13A27.19,27.19,0,0,0,163.85,26a25.56,25.56,0,0,1,2-1.9,2.15,2.15,0,0,1,1.28-.6c1.66,0,2.65.92,3,2.75A10,10,0,0,1,167.47,29.85Z"/><path class="cls-1" d="M173.55,32.75a6.53,6.53,0,0,1-2.25-5.2,17.11,17.11,0,0,1,2.37-8.8A18,18,0,0,1,180,12.32,16.46,16.46,0,0,1,188.6,10a7.09,7.09,0,0,1,4.7,1.58,5.66,5.66,0,0,1,1.9,4.62,6.45,6.45,0,0,1-2.53,5.38,16.41,16.41,0,0,1-6.35,2.89,64.63,64.63,0,0,1-9.17,1.43,5.73,5.73,0,0,0-.2,1.55,2.41,2.41,0,0,0,1.17,2.15,6.2,6.2,0,0,0,3.33.75,12.59,12.59,0,0,0,3.67-.65,6,6,0,0,0,3.18-2.15,4.38,4.38,0,0,1,1.52-1.35,3.79,3.79,0,0,1,1.78-.5,1.73,1.73,0,0,1,1.3.52,2.25,2.25,0,0,1,.5,1.58A8.76,8.76,0,0,1,191.05,31a13.74,13.74,0,0,1-4.45,2.68,16.16,16.16,0,0,1-5.9,1.05Q175.8,34.7,173.55,32.75Zm9.4-12a14.47,14.47,0,0,0,4.8-1.78,3.82,3.82,0,0,0,2.15-3.37,1.12,1.12,0,0,0-.65-1,2.77,2.77,0,0,0-1.4-.37,6.88,6.88,0,0,0-3.43,1.15,18.58,18.58,0,0,0-3.57,2.8,10.77,10.77,0,0,0-2.3,3.1A29.21,29.21,0,0,0,183,20.7Z"/><path class="cls-1" d="M203.93,31.8a3.75,3.75,0,0,1-1.55,1.48,4.77,4.77,0,0,1-2.26.53,4.22,4.22,0,0,1-2.6-.72,2.48,2.48,0,0,1-1-2.1,4,4,0,0,1,.6-2.15,4.28,4.28,0,0,1,1.66-1.55,4.78,4.78,0,0,1,2.37-.58,4,4,0,0,1,1.6.33A2.9,2.9,0,0,1,204,28a2.74,2.74,0,0,1,.47,1.62A4.14,4.14,0,0,1,203.93,31.8Zm-1.89.66a3,3,0,0,0,1-1.17,3.5,3.5,0,0,0,.35-1.53,2,2,0,0,0-.32-1.15,2,2,0,0,0-.84-.74,2.52,2.52,0,0,0-1.12-.26,3.49,3.49,0,0,0-1.62.42,3.58,3.58,0,0,0-1.33,1.18,3,3,0,0,0-.52,1.75,1.65,1.65,0,0,0,.7,1.42,3.46,3.46,0,0,0,2.1.52A2.86,2.86,0,0,0,202,32.46ZM198.9,28.8a5.69,5.69,0,0,1,.66-.28.64.64,0,0,1,.54-.28.44.44,0,0,1,.3.1,1.63,1.63,0,0,1,.43-.05,1.46,1.46,0,0,1,.71.17,1.23,1.23,0,0,1,.47.43,1.12,1.12,0,0,1,.16.55,1.22,1.22,0,0,1-.37.89,1.51,1.51,0,0,1-.89.42l.4.4c.25.25.39.38.43.38h.09a.53.53,0,0,1,.25.19.58.58,0,0,1,.14.33.3.3,0,0,1-.25.28l-.14.06a.54.54,0,0,1-.22,0,.68.68,0,0,1-.22,0,2.75,2.75,0,0,1-1.33-1.57l-.27,1.05a1.2,1.2,0,0,1-.19.41.53.53,0,0,1-.41.14.64.64,0,0,1-.4-.1.43.43,0,0,1-.12-.35c0-.1.21-.95.63-2.56l-.38.18a1,1,0,0,1-.25-.21.36.36,0,0,1-.07-.22C198.6,29,198.7,28.92,198.9,28.8Zm2,1.18a.57.57,0,0,0,.31-.46.45.45,0,0,0-.45-.42.79.79,0,0,0-.28,0l-.22,1.05A1.31,1.31,0,0,0,200.86,30Z"/></g></g></svg>