<?xml version="1.0" encoding="UTF-8"?><svg xmlns="http://www.w3.org/2000/svg" viewBox="0 0 27.9 27.9"><defs><style>.d{fill:#efc255;}.e,.f{fill:#9dc44c;}.g,.h{fill:#8fb346;}.i{fill:#dc983b;}.j{fill:#6f8a37;}.f,.h{fill-rule:evenodd;}</style></defs><g id="a"/><g id="b"><g id="c"><g><path class="j" d="M13.11,4.42l.09-.56s1.69,.98,3.63,.33l.11,.36c-2.1,.7-3.77-.09-3.84-.13Z"/><ellipse class="i" cx="12.04" cy="16.79" rx="12.04" ry="11.11"/><path class="h" d="M9.28,7.85c.08-.56,2.17-.26,2.17-.26,0,0-.09-1.39,.26-1.47,.4-.1,.99,1.32,.99,1.32,0,0,1.7-.67,1.9-.23,.18,.38-1.18,1.19-1.18,1.19,0,0,1.77,1.42,1.42,1.89-.38,.51-2.29-1.01-2.29-1.01,0,0-1.19,2.04-1.73,1.75-.51-.28,.42-2.33,.42-2.33,0,0-2.05-.33-1.97-.87Z"/><polyline class="d" points="7.73 12.6 7.37 12.97 7.73 13.34 8.09 12.97 7.73 12.6"/><polyline class="d" points="4.93 12.39 4.57 12.76 4.93 13.13 5.29 12.76 4.93 12.39"/><polyline class="d" points="2.68 12.39 2.32 12.76 2.68 13.13 3.04 12.76 2.68 12.39"/><polyline class="d" points="9.28 14.15 8.92 14.52 9.28 14.89 9.64 14.52 9.28 14.15"/><polyline class="d" points="7.73 16.05 7.37 16.42 7.73 16.79 8.09 16.42 7.73 16.05"/><polyline class="d" points="5.29 16.05 4.93 16.42 5.29 16.79 5.65 16.42 5.29 16.05"/><polyline class="d" points="2.5 16.26 2.14 16.63 2.5 17 2.86 16.63 2.5 16.26"/><polyline class="d" points="6.51 14.24 6.15 14.61 6.51 14.98 6.87 14.61 6.51 14.24"/><polyline class="d" points="4.07 14.24 3.71 14.61 4.07 14.98 4.43 14.61 4.07 14.24"/><polyline class="d" points="1.63 14.24 1.27 14.61 1.63 14.98 1.99 14.61 1.63 14.24"/><polyline class="d" points="9.02 10.96 8.66 11.33 9.02 11.7 9.38 11.33 9.02 10.96"/><polyline class="d" points="6.33 10.96 5.97 11.33 6.33 11.7 6.69 11.33 6.33 10.96"/><polyline class="d" points="3.71 10.59 3.35 10.96 3.71 11.33 4.07 10.96 3.71 10.59"/><polyline class="d" points="8 9.53 7.64 9.9 8 10.27 8.36 9.9 8 9.53"/><polyline class="d" points="6.98 8.13 6.62 8.5 6.98 8.87 7.34 8.5 6.98 8.13"/><polyline class="d" points="5.29 9.16 4.93 9.53 5.29 9.9 5.65 9.53 5.29 9.16"/><polyline class="d" points="6.51 17.91 6.15 18.28 6.51 18.65 6.87 18.28 6.51 17.91"/><polyline class="d" points="3.93 17.91 3.57 18.28 3.93 18.65 4.29 18.28 3.93 17.91"/><path class="f" d="M21.12,1.95c3.01,2.51,6.78,1.81,6.78,1.81,0,0-6.11,7.67-11.15,4.53-4.73-2.94,0-9.99,4.37-6.35Z"/><path class="j" d="M13.25,.39l-.87,.43c1.37,4.34-.31,6.75-.72,7.14-.57,.55,.75,1.08,1.34,.28,.12-.17,1.86-2.76,.25-7.85Z"/><path class="e" d="M12.82,0c.26,0,.46,.28,.46,.62s-.21,.62-.46,.62-.46-.28-.46-.62,.21-.62,.46-.62Z"/><path class="g" d="M14.81,4.55c.47-.33,.98-.59,1.52-.78,.55-.18,1.12-.27,1.7-.28,1.17-.01,2.28,.35,3.36,.62,1.08,.29,2.17,.49,3.27,.43,1.1-.05,2.19-.36,3.24-.77-.49,.29-1.01,.53-1.54,.73-.54,.18-1.1,.32-1.67,.39-1.15,.14-2.31-.05-3.41-.34-1.1-.29-2.16-.64-3.26-.71-1.1-.07-2.2,.22-3.22,.72Z"/></g></g></g></svg>