<svg xmlns="http://www.w3.org/2000/svg" viewBox="0 0 27.9 27.9"><defs><style>.cls-1{fill:#628c2c;}.cls-2{fill:#f29a2e;}.cls-3,.cls-7{fill:#7fb539;}.cls-3,.cls-5{fill-rule:evenodd;}.cls-4{fill:#ffc44a;}.cls-5,.cls-6{fill:#8cc63e;}</style></defs><g id="Calque_2" data-name="Calque 2"><g id="Calque_1-2" data-name="Calque 1"><path class="cls-1" d="M13.11,4.42l.08-.57a4.78,4.78,0,0,0,3.64.33l.11.37A5.33,5.33,0,0,1,13.11,4.42Z"/><ellipse class="cls-2" cx="12.04" cy="16.79" rx="12.04" ry="11.11"/><path class="cls-3" d="M9.28,7.85c.08-.55,2.17-.25,2.17-.25s-.09-1.39.27-1.48,1,1.33,1,1.33,1.69-.67,1.9-.23-1.18,1.2-1.18,1.2,1.78,1.42,1.42,1.89-2.29-1-2.29-1-1.19,2-1.72,1.76.41-2.33.41-2.33S9.2,8.4,9.28,7.85Z"/><polyline class="cls-4" points="7.73 12.6 7.37 12.97 7.73 13.34 8.09 12.97 7.73 12.6"/><polyline class="cls-4" points="4.93 12.39 4.57 12.76 4.93 13.13 5.29 12.76 4.93 12.39"/><polyline class="cls-4" points="2.68 12.39 2.32 12.76 2.68 13.13 3.04 12.76 2.68 12.39"/><polyline class="cls-4" points="9.28 14.15 8.92 14.52 9.28 14.89 9.64 14.52 9.28 14.15"/><polyline class="cls-4" points="7.73 16.05 7.37 16.42 7.73 16.79 8.09 16.42 7.73 16.05"/><polyline class="cls-4" points="5.29 16.05 4.93 16.42 5.29 16.79 5.65 16.42 5.29 16.05"/><polyline class="cls-4" points="2.5 16.26 2.14 16.63 2.5 17 2.86 16.63 2.5 16.26"/><polyline class="cls-4" points="6.51 14.24 6.15 14.61 6.51 14.98 6.87 14.61 6.51 14.24"/><polyline class="cls-4" points="4.07 14.24 3.71 14.61 4.07 14.98 4.43 14.61 4.07 14.24"/><polyline class="cls-4" points="1.63 14.24 1.27 14.61 1.63 14.98 1.99 14.61 1.63 14.24"/><polyline class="cls-4" points="9.02 10.96 8.66 11.33 9.02 11.7 9.38 11.33 9.02 10.96"/><polyline class="cls-4" points="6.33 10.96 5.97 11.33 6.33 11.7 6.7 11.33 6.33 10.96"/><polyline class="cls-4" points="3.71 10.59 3.35 10.96 3.71 11.33 4.07 10.96 3.71 10.59"/><polyline class="cls-4" points="8 9.53 7.64 9.9 8 10.27 8.36 9.9 8 9.53"/><polyline class="cls-4" points="6.98 8.13 6.62 8.5 6.98 8.87 7.34 8.5 6.98 8.13"/><polyline class="cls-4" points="5.29 9.16 4.93 9.53 5.29 9.9 5.65 9.53 5.29 9.16"/><polyline class="cls-4" points="6.51 17.91 6.15 18.28 6.51 18.65 6.87 18.28 6.51 17.91"/><polyline class="cls-4" points="3.93 17.91 3.57 18.28 3.93 18.65 4.29 18.28 3.93 17.91"/><path class="cls-5" d="M21.12,2A8.93,8.93,0,0,0,27.9,3.76s-6.11,7.67-11.15,4.53C12,5.35,16.75-1.7,21.12,2Z"/><path class="cls-1" d="M13.25.39l-.87.43c1.37,4.33-.31,6.75-.72,7.14-.57.55.75,1.08,1.34.28C13.12,8.08,14.86,5.49,13.25.39Z"/><path class="cls-6" d="M12.82,0a.56.56,0,0,1,.47.62c0,.35-.21.63-.47.63S12.36,1,12.36.62,12.57,0,12.82,0Z"/><path class="cls-7" d="M14.81,4.55a6.45,6.45,0,0,1,1.52-.79A5.71,5.71,0,0,1,18,3.48a13.39,13.39,0,0,1,3.36.62,10.08,10.08,0,0,0,3.27.43,10.28,10.28,0,0,0,3.24-.77,9.85,9.85,0,0,1-1.54.73,7.9,7.9,0,0,1-1.68.39,9.07,9.07,0,0,1-3.4-.34A16.55,16.55,0,0,0,18,3.83,6.27,6.27,0,0,0,14.81,4.55Z"/></g></g></svg>