<?xml version="1.0" encoding="UTF-8"?><svg xmlns="http://www.w3.org/2000/svg" viewBox="0 0 27.9 27.9"><defs><style>.d{fill:#9dc44c;}.e{fill:#de5656;}.f{fill:#dbff86;}.g{fill:#708739;}.h{fill:#424548;fill-rule:evenodd;}</style></defs><g id="a"/><g id="b"><g id="c"><g><path class="e" d="M.05,22.45c7.52,7.27,20.26,7.27,27.81-.03L13.94,0,.05,22.45Z"/><path class="f" d="M1.84,19.55l-.52,.72c5.51,4.84,17.15,6.74,25.26-.03l-.52-.71c-7.06,5.34-17.18,5.34-24.22,.02Z"/><path class="d" d="M1.33,20.26l-1.33,2.15c7.53,7.32,20.34,7.32,27.9-.03l-1.32-2.14c-7.2,5.79-18.07,5.79-25.25,.03Z"/><path class="h" d="M6.51,16.99c0-.6,1.09-2.14,1.09-2.14,0,0,1.14,1.59,1.15,2.19,0,.6-.49,1.08-1.11,1.06-.62-.01-1.13-.52-1.14-1.12Z"/><path class="h" d="M12.29,19.12c0-.6,1.09-2.14,1.09-2.14,0,0,1.14,1.59,1.15,2.19,0,.6-.49,1.08-1.11,1.06-.62-.01-1.13-.52-1.14-1.12Z"/><path class="h" d="M16.05,13.73c0-.6,1.09-2.14,1.09-2.14,0,0,1.14,1.59,1.15,2.19,0,.6-.49,1.08-1.11,1.06-.62-.01-1.13-.52-1.14-1.12Z"/><path class="h" d="M19.87,18.82c0-.6,1.09-2.14,1.09-2.14,0,0,1.14,1.59,1.15,2.19,0,.6-.49,1.08-1.11,1.06-.62-.01-1.13-.52-1.14-1.12Z"/><path class="h" d="M11.71,8.78c0-.6,1.09-2.14,1.09-2.14,0,0,1.14,1.59,1.15,2.19,0,.6-.49,1.08-1.11,1.06-.62-.01-1.13-.52-1.14-1.12Z"/><path class="g" d="M12.2,24.52v3.31c1.17,.1,2.34,.09,3.51,0v-3.31c-1.17,.1-2.34,.1-3.51,0Z"/><path class="g" d="M3.98,22.04l-1.01,2.71c1,.64,2.04,1.17,3.13,1.62l1.09-2.9c-1.1-.38-2.18-.85-3.2-1.43Z"/><path class="g" d="M23.92,22.03c-1.03,.57-2.1,1.05-3.2,1.43l1.09,2.9c1.08-.45,2.13-.98,3.13-1.62l-1.01-2.71Z"/></g></g></g></svg>