<svg xmlns="http://www.w3.org/2000/svg" viewBox="0 0 27.9 27.9"><defs><style>.cls-1{fill:#f55;}.cls-2{fill:#ceff80;}.cls-3{fill:#8cc63e;}.cls-4{fill:#3e4347;fill-rule:evenodd;}.cls-5{fill:#64892f;}</style></defs><g id="Calque_2" data-name="Calque 2"><g id="Calque_1-2" data-name="Calque 1"><path class="cls-1" d="M.05,22.45a20.43,20.43,0,0,0,27.81,0L13.94,0Z"/><path class="cls-2" d="M1.84,19.55l-.52.72c5.51,4.84,17.15,6.75,25.26,0l-.52-.71A20.34,20.34,0,0,1,1.84,19.55Z"/><path class="cls-3" d="M1.33,20.26,0,22.41a20.44,20.44,0,0,0,27.9,0l-1.32-2.14A20.55,20.55,0,0,1,1.33,20.26Z"/><path class="cls-4" d="M6.51,17a6.9,6.9,0,0,1,1.1-2.14,7.49,7.49,0,0,1,1.15,2.2,1.06,1.06,0,0,1-1.11,1.06A1.16,1.16,0,0,1,6.51,17Z"/><path class="cls-4" d="M12.29,19.12A6.7,6.7,0,0,1,13.38,17a7.41,7.41,0,0,1,1.15,2.19,1.06,1.06,0,0,1-1.11,1.07A1.15,1.15,0,0,1,12.29,19.12Z"/><path class="cls-4" d="M16.05,13.73a6.7,6.7,0,0,1,1.09-2.14,7.25,7.25,0,0,1,1.15,2.2,1,1,0,0,1-1.1,1.06A1.16,1.16,0,0,1,16.05,13.73Z"/><path class="cls-4" d="M19.87,18.82A6.7,6.7,0,0,1,21,16.68a7.41,7.41,0,0,1,1.15,2.19A1.06,1.06,0,0,1,21,19.94,1.16,1.16,0,0,1,19.87,18.82Z"/><path class="cls-4" d="M11.71,8.78A6.7,6.7,0,0,1,12.8,6.64,7.41,7.41,0,0,1,14,8.83,1.07,1.07,0,0,1,12.84,9.9,1.15,1.15,0,0,1,11.71,8.78Z"/><path class="cls-5" d="M12.2,24.52v3.31a21.65,21.65,0,0,0,3.51,0V24.51A21.65,21.65,0,0,1,12.2,24.52Z"/><path class="cls-5" d="M4,22,3,24.76a20.13,20.13,0,0,0,3.13,1.61l1.09-2.9A18.71,18.71,0,0,1,4,22Z"/><path class="cls-5" d="M23.92,22a20.31,20.31,0,0,1-3.2,1.43l1.08,2.9a19.37,19.37,0,0,0,3.13-1.63Z"/></g></g></svg>