<?xml version="1.0" encoding="UTF-8"?><svg xmlns="http://www.w3.org/2000/svg" viewBox="0 0 27.9 27.9"><defs><style>.d{fill:#e59265;}.e{fill:#816247;}.f{fill:#997354;}.g,.h{fill:#9dc44c;}.i,.j{fill:#8fb346;}.k{fill:#c1734c;}.h,.j{fill-rule:evenodd;}</style></defs><g id="a"/><g id="b"><g id="c"><g><path class="e" d="M15.05,3.3c0-1.07-1.58-1.27-1.58-.23,0,1.23-.63,1.67-.63,2.33,0,.82,1.87,.97,1.87,.09,0-.87,.35-.74,.35-2.2Z"/><path class="f" d="M14.46,3.16c1.29,0-1.07-1.67-1.07-.13,0,1.23-.88,1.8-.5,2.6,.83-1.04,.21-2.47,1.56-2.47Z"/><path class="d" d="M1.14,14.26c0-7.54,6.14-12.14,12.67-8.61,6.64-3.35,14.09,1.08,14.09,8.61,0,6.77-3.7,10.55-8.36,12.28-1.68,.63-4.83,1.38-6.62,1.35-1.31-.02-1.28-.68-2.53-1.06C5.33,25.34,1.14,21.46,1.14,14.26Z"/><path class="g" d="M14.15,2.95c-.05,0-.11-.03-.14-.09-.93-1.39-1.83-1.07-1.83-1.07l-.1-.47s1.13-.39,2.21,1.22c.07,.1,.06,.26-.02,.34-.04,.04-.08,.06-.12,.06Z"/><path class="j" d="M10.37,.03C5.73-.42,.95,4.93,.95,4.93c0,0,3.25-1.23,6.07-.64,2.86,.6,5.32-2.79,5.32-2.79,0,0-.66-1.34-1.98-1.47Z"/><path class="h" d="M6.04,3.73C3.63,6.98,0,8.85,0,8.85c0,0,6.91,.72,11.12-4.11,1.19-1.36,1.22-3.31,1.22-3.31,0,0-3.85-.99-6.3,2.31Z"/><path class="i" d="M12.34,1.42c-.49,.09-1.01,.25-1.54,.47-.54,.22-1.09,.52-1.63,.86-1.09,.69-2.07,1.57-3.03,2.37-.96,.82-1.95,1.58-2.99,2.22-1.04,.63-2.1,1.11-3.15,1.51,.5-.12,1.02-.3,1.55-.51,.53-.22,1.08-.48,1.62-.79,1.09-.61,2.15-1.42,3.13-2.24,.98-.83,1.91-1.67,2.93-2.37,1.01-.7,2.08-1.19,3.11-1.52Z"/><path class="k" d="M17.89,14.82c.2,1.66,.12,3.32-.33,4.89-.46,1.57-1.32,3.03-2.72,4.28,1.95-.73,3.37-2.18,4.15-3.82,.8-1.64,1.01-3.48,.79-5.31-.23-1.83-.87-3.66-1.99-5.37-1.09-1.68-2.69-3.31-4.79-4.24,1.62,1.38,2.66,2.97,3.44,4.59,.75,1.63,1.23,3.3,1.43,4.97Z"/></g></g></g></svg>