<svg xmlns="http://www.w3.org/2000/svg" viewBox="0 0 27.9 27.9"><defs><style>.cls-1{fill:#8e6244;}.cls-2{fill:#a87451;}.cls-3{fill:#ff9463;}.cls-4,.cls-6{fill:#8cc63e;}.cls-5,.cls-7{fill:#7fb539;}.cls-5,.cls-6{fill-rule:evenodd;}.cls-8{fill:#d97448;}</style></defs><g id="Calque_2" data-name="Calque 2"><g id="Calque_1-2" data-name="Calque 1"><path class="cls-1" d="M15.05,3.3c0-1.07-1.58-1.27-1.58-.23,0,1.23-.63,1.67-.63,2.33,0,.82,1.86,1,1.86.1S15.05,4.75,15.05,3.3Z"/><path class="cls-2" d="M14.46,3.16c1.28,0-1.07-1.67-1.07-.13,0,1.23-.88,1.8-.5,2.6C13.72,4.59,13.1,3.16,14.46,3.16Z"/><path class="cls-3" d="M1.14,14.26c0-7.53,6.14-12.13,12.67-8.61A9.52,9.52,0,0,1,27.9,14.26c0,6.77-3.7,10.56-8.36,12.29a23.15,23.15,0,0,1-6.62,1.35c-1.31,0-1.28-.68-2.53-1.06C5.33,25.34,1.14,21.46,1.14,14.26Z"/><path class="cls-4" d="M14.15,3A.17.17,0,0,1,14,2.86c-.93-1.38-1.83-1.06-1.83-1.06l-.1-.48S13.22.93,14.3,2.54a.32.32,0,0,1,0,.35A.18.18,0,0,1,14.15,3Z"/><path class="cls-5" d="M10.37,0C5.73-.42,1,4.93,1,4.93A12.68,12.68,0,0,1,7,4.29c2.85.6,5.32-2.79,5.32-2.79A2.75,2.75,0,0,0,10.37,0Z"/><path class="cls-6" d="M6,3.73A19.76,19.76,0,0,1,0,8.85s6.91.72,11.12-4.11a5.79,5.79,0,0,0,1.22-3.32A6.23,6.23,0,0,0,6,3.73Z"/><path class="cls-7" d="M12.34,1.42a8.09,8.09,0,0,0-1.54.47,10.68,10.68,0,0,0-1.63.86,31,31,0,0,0-3,2.38,23.9,23.9,0,0,1-3,2.21A19.24,19.24,0,0,1,0,8.85a11.67,11.67,0,0,0,1.55-.51,16.05,16.05,0,0,0,1.63-.78A19.88,19.88,0,0,0,6.3,5.31c1-.83,1.92-1.67,2.93-2.37A11.76,11.76,0,0,1,12.34,1.42Z"/><path class="cls-8" d="M17.89,14.82a12.54,12.54,0,0,1-.32,4.89A9.1,9.1,0,0,1,14.85,24,7.5,7.5,0,0,0,19,20.17a9.53,9.53,0,0,0,.8-5.3,12.72,12.72,0,0,0-2-5.37A11.27,11.27,0,0,0,13,5.26a13.57,13.57,0,0,1,3.44,4.59A16.41,16.41,0,0,1,17.89,14.82Z"/></g></g></svg>